<?xml version="1.0" encoding="UTF-8" standalone="no" ?>
<!DOCTYPE svg PUBLIC "-//W3C//DTD SVG 1.1//EN" "http://www.w3.org/Graphics/SVG/1.1/DTD/svg11.dtd">
<svg xmlns="http://www.w3.org/2000/svg" xmlns:xlink="http://www.w3.org/1999/xlink" version="1.1" width="430" height="400" viewBox="0 0 430 400" xml:space="preserve">
<desc>Created with Fabric.js 5.2.4</desc>
<defs>
</defs>
<rect x="0" y="0" width="100%" height="100%" fill="transparent"></rect>
<g transform="matrix(1 0 0 1 215 200)" id="72252e19-d7e5-440e-a23a-7ded7fe50f1e"  >
<rect style="stroke: none; stroke-width: 1; stroke-dasharray: none; stroke-linecap: butt; stroke-dashoffset: 0; stroke-linejoin: miter; stroke-miterlimit: 4; fill: rgb(255,255,255); fill-rule: nonzero; opacity: 1; visibility: hidden;" vector-effect="non-scaling-stroke"  x="-215" y="-200" rx="0" ry="0" width="430" height="400" />
</g>
<g transform="matrix(0 0 0 0 0 0)" id="17b1759e-0edb-4acf-a2a7-7288b4c4b8d3"  >
</g>
<g transform="matrix(0.98 0 0 0.98 303.19 204.94)" id="svg_2"  >
<polygon style="stroke: none; stroke-width: 1; stroke-dasharray: none; stroke-linecap: butt; stroke-dashoffset: 0; stroke-linejoin: miter; stroke-miterlimit: 4; fill: rgb(169,95,21); fill-rule: nonzero; opacity: 1;" vector-effect="non-scaling-stroke"  points="72.25,-20.85 36.95,-41.55 36.95,-20.25 -108.05,-20.25 -108.05,27.75 36.95,27.75 36.95,41.55 72.35,20.75 108.05,-0.05 " />
</g>
<g transform="matrix(0.98 0 0 0.98 200.02 200)" id="svg_3"  >
<polygon style="stroke: none; stroke-width: 1; stroke-dasharray: none; stroke-linecap: butt; stroke-dashoffset: 0; stroke-linejoin: miter; stroke-miterlimit: 4; fill: rgb(230,128,25); fill-rule: nonzero; opacity: 1;" vector-effect="non-scaling-stroke"  points="78,80 78,123 -78,123 -78,-123 78,-123 78,-64 126,-64 126,-172 -126,-172 -126,172 126,172 126,80 " />
</g>
<g transform="matrix(0 0 0 0 44.8 0)"  >
<g style=""   >
</g>
</g>
<g transform="matrix(0 0 0 0 44.8 0)"  >
<g style=""   >
</g>
</g>
<g transform="matrix(0 0 0 0 44.8 0)"  >
<g style=""   >
</g>
</g>
<g transform="matrix(0 0 0 0 44.8 0)"  >
<g style=""   >
</g>
</g>
</svg>