<?xml version="1.0" encoding="UTF-8" standalone="no" ?>
<!DOCTYPE svg PUBLIC "-//W3C//DTD SVG 1.1//EN" "http://www.w3.org/Graphics/SVG/1.1/DTD/svg11.dtd">
<svg xmlns="http://www.w3.org/2000/svg" xmlns:xlink="http://www.w3.org/1999/xlink" version="1.1" width="400" height="400" viewBox="0 0 400 400" xml:space="preserve">
<desc>Created with Fabric.js 5.2.4</desc>
<defs>
</defs>
<rect x="0" y="0" width="100%" height="100%" fill="transparent"></rect>
<g transform="matrix(0 0 0 0 0 0)" id="430523cd-cdfb-4c73-b0d3-208b5584339b"  >
</g>
<g transform="matrix(1 0 0 1 200 200)" id="2205bd56-cdae-4e8d-a7f4-c73c94151841"  >
<rect style="stroke: none; stroke-width: 1; stroke-dasharray: none; stroke-linecap: butt; stroke-dashoffset: 0; stroke-linejoin: miter; stroke-miterlimit: 4; fill: rgb(255,255,255); fill-rule: nonzero; opacity: 1; visibility: hidden;" vector-effect="non-scaling-stroke"  x="-200" y="-200" rx="0" ry="0" width="400" height="400" />
</g>
<g transform="matrix(1.22 0 0 1.22 200 200)"  >
<path style="stroke: none; stroke-width: 1; stroke-dasharray: none; stroke-linecap: butt; stroke-dashoffset: 0; stroke-linejoin: miter; stroke-miterlimit: 4; fill: rgb(0,0,0); fill-rule: evenodd; opacity: 0.91;" vector-effect="non-scaling-stroke"  transform=" translate(-249.56, -185.76)" d="M 247.5 30.5 C 280.657 27.1658 302.824 41.1658 314 72.5 C 316.299 83.7328 316.965 95.0661 316 106.5 C 313.195 117.779 309.528 128.779 305 139.5 C 302.941 147.584 303.274 155.584 306 163.5 C 310.952 176.402 315.618 189.402 320 202.5 C 327.905 237.195 315.405 261.029 282.5 274 C 281.313 275.019 280.313 276.186 279.5 277.5 C 280.609 279.385 281.443 281.385 282 283.5 C 282.561 284.022 283.228 284.355 284 284.5 C 290.773 281.197 297.607 278.03 304.5 275 C 319.86 273.185 326.693 280.019 325 295.5 C 324.727 297.329 323.893 298.829 322.5 300 C 325.026 299.096 327.692 298.762 330.5 299 C 331.573 300.313 332.24 301.813 332.5 303.5 C 331.103 306.406 329.103 308.906 326.5 311 C 314.18 320.161 301.514 328.828 288.5 337 C 284.781 339.364 280.781 340.864 276.5 341.5 C 275.339 333.549 274.505 325.549 274 317.5 C 272.703 312.608 271.203 307.775 269.5 303 C 273.045 294.111 271.712 285.778 265.5 278 C 255.122 277.683 244.789 276.849 234.5 275.5 C 233.5 275.833 232.5 276.167 231.5 276.5 C 230.293 282.535 228.96 288.535 227.5 294.5 C 236.335 294.405 245.002 295.572 253.5 298 C 266.807 303.235 270.807 312.568 265.5 326 C 262.5 326.333 259.5 326.667 256.5 327 C 261.594 327.75 264.094 330.583 264 335.5 C 263.044 336.894 261.711 337.561 260 337.5 C 241.075 333.394 222.242 328.894 203.5 324 C 198.539 323.096 197.539 320.763 200.5 317 C 202.392 316.027 204.392 315.36 206.5 315 C 204.556 313.278 203.556 311.111 203.5 308.5 C 204.076 303.282 205.409 298.282 207.5 293.5 C 208.328 292.585 209.328 291.919 210.5 291.5 C 212.409 292.348 214.409 292.682 216.5 292.5 C 216.468 286.326 217.468 280.326 219.5 274.5 C 219 273.5 218.5 272.5 218 271.5 C 185.508 250.539 168.508 220.539 167 181.5 C 166.118 160.784 166.785 140.117 169 119.5 C 172.844 91.3101 185.011 67.4768 205.5 48 C 217.841 37.9905 231.841 32.1572 247.5 30.5 Z" stroke-linecap="round" />
</g>
<g transform="matrix(1.22 0 0 1.22 193.64 160.98)"  >
<path style="stroke: none; stroke-width: 1; stroke-dasharray: none; stroke-linecap: butt; stroke-dashoffset: 0; stroke-linejoin: miter; stroke-miterlimit: 4; fill: rgb(250,162,3); fill-rule: evenodd; opacity: 1;" vector-effect="non-scaling-stroke"  transform=" translate(-244.32, -153.72)" d="M 247.5 41.5 C 280.081 38.866 299.581 53.5326 306 85.5 C 306.774 92.2236 306.441 98.8903 305 105.5 C 302.064 114.974 298.731 124.308 295 133.5 C 293.074 141.375 292.074 149.375 292 157.5 C 291.529 159.246 290.862 160.913 290 162.5 C 284.153 166.177 277.986 167.01 271.5 165 C 268.167 162.333 264.833 159.667 261.5 157 C 259.833 156.333 258.167 156.333 256.5 157 C 256.413 165.75 260.746 171.417 269.5 174 C 271.953 174.738 274.453 175.238 277 175.5 C 283.107 174.64 289.107 173.306 295 171.5 C 295.833 171.833 296.667 172.167 297.5 172.5 C 303.733 186.296 308.233 200.63 311 215.5 C 312.274 237.568 302.774 253.068 282.5 262 C 231.65 275.331 198.15 257.165 182 207.5 C 180.157 201.617 178.823 195.617 178 189.5 C 177.117 167.141 177.451 144.808 179 122.5 C 182.914 96.8359 194.081 75.0026 212.5 57 C 223.165 49.3965 234.831 44.2298 247.5 41.5 Z" stroke-linecap="round" />
</g>
<g transform="matrix(1.22 0 0 1.22 227.48 129.75)"  >
<path style="stroke: none; stroke-width: 1; stroke-dasharray: none; stroke-linecap: butt; stroke-dashoffset: 0; stroke-linejoin: miter; stroke-miterlimit: 4; fill: rgb(6,3,0); fill-rule: evenodd; opacity: 0.98;" vector-effect="non-scaling-stroke"  transform=" translate(-272.03, -128)" d="M 270.5 122.5 C 273.138 123.242 274.471 125.075 274.5 128 C 274.327 130.021 273.66 131.854 272.5 133.5 C 271.522 133.023 270.689 132.357 270 131.5 C 269.264 128.408 269.431 125.408 270.5 122.5 Z" stroke-linecap="round" />
</g>
<g transform="matrix(1.22 0 0 1.22 242.05 129.61)"  >
<path style="stroke: none; stroke-width: 1; stroke-dasharray: none; stroke-linecap: butt; stroke-dashoffset: 0; stroke-linejoin: miter; stroke-miterlimit: 4; fill: rgb(8,4,0); fill-rule: evenodd; opacity: 0.98;" vector-effect="non-scaling-stroke"  transform=" translate(-283.96, -127.88)" d="M 282.5 122.5 C 286.748 123.588 288.248 126.255 287 130.5 C 283.769 134.635 281.603 134.135 280.5 129 C 280.482 126.59 281.149 124.423 282.5 122.5 Z" stroke-linecap="round" />
</g>
<g transform="matrix(1.22 0 0 1.22 169.02 223.43)"  >
<path style="stroke: none; stroke-width: 1; stroke-dasharray: none; stroke-linecap: butt; stroke-dashoffset: 0; stroke-linejoin: miter; stroke-miterlimit: 4; fill: rgb(1,0,0); fill-rule: evenodd; opacity: 0.99;" vector-effect="non-scaling-stroke"  transform=" translate(-224.09, -204.86)" d="M 218.5 171.5 C 221.585 171.542 223.919 172.875 225.5 175.5 C 219.818 186.864 214.151 198.198 208.5 209.5 C 210.283 211.232 212.283 212.732 214.5 214 C 226.779 219.473 238.779 225.473 250.5 232 C 252.372 236.919 250.705 238.919 245.5 238 C 228.778 231.723 212.611 224.223 197 215.5 C 196.726 212.351 197.392 209.351 199 206.5 C 205.005 194.483 211.505 182.817 218.5 171.5 Z" stroke-linecap="round" />
</g>
</svg>