<?xml version="1.0" encoding="UTF-8" standalone="no" ?>
<!DOCTYPE svg PUBLIC "-//W3C//DTD SVG 1.1//EN" "http://www.w3.org/Graphics/SVG/1.1/DTD/svg11.dtd">
<svg xmlns="http://www.w3.org/2000/svg" xmlns:xlink="http://www.w3.org/1999/xlink" version="1.1" width="1000" height="500" viewBox="-75 -37.5 1000 500" xml:space="preserve">
<desc>Created with Fabric.js 5.2.4</desc>
<defs>
</defs>
<g transform="matrix(1 0 0 1 500 250)" id="a6c40c4e-2874-40e7-95e0-81b823b0a7d1"  >
<rect style="stroke: none; stroke-width: 1; stroke-dasharray: none; stroke-linecap: butt; stroke-dashoffset: 0; stroke-linejoin: miter; stroke-miterlimit: 4; fill: rgb(255,255,255); fill-rule: nonzero; opacity: 1; visibility: hidden;" vector-effect="non-scaling-stroke"  x="-500" y="-250" rx="0" ry="0" width="1000" height="500" />
</g>
<g transform="matrix(0 0 0 0 0 0)" id="df6dd871-794a-4d05-bb5f-8dd06a6ff273"  >
</g>
<g transform="matrix(6.5 0 0 5.89 135.41 171.52)"  >
<path style="stroke: none; stroke-width: 1; stroke-dasharray: none; stroke-linecap: butt; stroke-dashoffset: 0; stroke-linejoin: miter; stroke-miterlimit: 4; fill: rgb(41,146,197); fill-rule: nonzero; opacity: 1;" vector-effect="non-scaling-stroke"  transform=" translate(-30.4, -31.78)" d="M 33.6 36 L 33.6 30.3 C 33.6 30 33.5 29.8 33.2 29.7 L 28.300000000000004 26.9 C 27.800000000000004 26.599999999999998 27.200000000000003 27 27.200000000000003 27.5 L 27.200000000000003 33.2 C 27.200000000000003 33.5 27.300000000000004 33.7 27.6 33.800000000000004 L 32.5 36.6 C 33 37 33.6 36.6 33.6 36 z" stroke-linecap="round" />
</g>
<g transform="matrix(6.5 0 0 5.89 156.2 138.66)"  >
<path style="stroke: none; stroke-width: 1; stroke-dasharray: none; stroke-linecap: butt; stroke-dashoffset: 0; stroke-linejoin: miter; stroke-miterlimit: 4; fill: rgb(90,91,94); fill-rule: nonzero; opacity: 1;" vector-effect="non-scaling-stroke"  transform=" translate(-33.6, -26.2)" d="M 28.3 25.6 L 33.2 22.700000000000003 C 33.400000000000006 22.6 33.7 22.6 34 22.700000000000003 L 38.9 25.6 C 39.4 25.900000000000002 39.4 26.6 38.9 26.900000000000002 L 34 29.7 C 33.8 29.8 33.5 29.8 33.2 29.7 L 28.300000000000004 26.8 C 27.800000000000004 26.6 27.800000000000004 25.900000000000002 28.300000000000004 25.6 z" stroke-linecap="round" />
</g>
<g transform="matrix(6.5 0 0 5.89 260.14 171.52)"  >
<path style="stroke: none; stroke-width: 1; stroke-dasharray: none; stroke-linecap: butt; stroke-dashoffset: 0; stroke-linejoin: miter; stroke-miterlimit: 4; fill: rgb(41,146,197); fill-rule: nonzero; opacity: 1;" vector-effect="non-scaling-stroke"  transform=" translate(-49.6, -31.78)" d="M 46.4 36 L 46.4 30.3 C 46.4 30 46.5 29.8 46.8 29.7 L 51.699999999999996 26.9 C 52.199999999999996 26.599999999999998 52.8 27 52.8 27.5 L 52.8 33.2 C 52.8 33.5 52.699999999999996 33.7 52.4 33.800000000000004 L 47.5 36.6 C 47.1 37 46.4 36.6 46.4 36 z" stroke-linecap="round" />
</g>
<g transform="matrix(6.5 0 0 5.89 240 138.96)"  >
<path style="stroke: none; stroke-width: 1; stroke-dasharray: none; stroke-linecap: butt; stroke-dashoffset: 0; stroke-linejoin: miter; stroke-miterlimit: 4; fill: rgb(90,91,94); fill-rule: nonzero; opacity: 1;" vector-effect="non-scaling-stroke"  transform=" translate(-46.5, -26.25)" d="M 51.8 25.6 L 46.9 22.700000000000003 C 46.699999999999996 22.6 46.4 22.6 46.1 22.700000000000003 L 41.2 25.6 C 40.7 25.900000000000002 40.7 26.6 41.2 26.900000000000002 L 46.1 29.8 C 46.300000000000004 29.900000000000002 46.6 29.900000000000002 46.9 29.8 L 51.8 26.900000000000002 C 52.3 26.6 52.3 25.900000000000002 51.8 25.6 z" stroke-linecap="round" />
</g>
<g transform="matrix(6.5 0 0 5.89 218.56 237.33)"  >
<path style="stroke: none; stroke-width: 1; stroke-dasharray: none; stroke-linecap: butt; stroke-dashoffset: 0; stroke-linejoin: miter; stroke-miterlimit: 4; fill: rgb(90,91,94); fill-rule: nonzero; opacity: 1;" vector-effect="non-scaling-stroke"  transform=" translate(-43.2, -42.95)" d="M 45.3 38 L 40.4 40.9 C 40.2 41 40 41.3 40 41.6 L 40 47.300000000000004 C 40 47.900000000000006 40.6 48.2 41.1 47.900000000000006 L 46 45.1 C 46.2 45 46.4 44.7 46.4 44.5 L 46.4 38.8 C 46.4 38 45.7 37.7 45.3 38 Z" stroke-linecap="round" />
</g>
<g transform="matrix(6.5 0 0 5.89 176.66 236.98)"  >
<path style="stroke: none; stroke-width: 1; stroke-dasharray: none; stroke-linecap: butt; stroke-dashoffset: 0; stroke-linejoin: miter; stroke-miterlimit: 4; fill: rgb(41,146,197); fill-rule: nonzero; opacity: 1;" vector-effect="non-scaling-stroke"  transform=" translate(-36.75, -42.89)" d="M 38.9 47.8 L 33.9 45 C 33.699999999999996 44.9 33.5 44.6 33.5 44.3 L 33.5 38.599999999999994 C 33.5 37.99999999999999 34.1 37.699999999999996 34.6 37.99999999999999 L 39.6 40.79999999999999 C 39.800000000000004 40.89999999999999 40 41.19999999999999 40 41.39999999999999 L 40 47.099999999999994 C 40 47.699999999999996 39.4 48.099999999999994 38.9 47.8 z" stroke-linecap="round" />
</g>
<g transform="matrix(6.5 0 0 5.89 310.16 145.48)"  >
<path style="stroke: none; stroke-width: 1; stroke-dasharray: none; stroke-linecap: butt; stroke-dashoffset: 0; stroke-linejoin: miter; stroke-miterlimit: 4; fill: rgb(41,146,197); fill-rule: nonzero; opacity: 1;" vector-effect="non-scaling-stroke"  transform=" translate(-57.3, -27.36)" d="M 54.1 31.6 L 54.1 25.900000000000002 C 54.1 25.6 54.2 25.400000000000002 54.5 25.3 L 59.4 22.5 C 59.9 22.2 60.5 22.6 60.5 23.1 L 60.5 28.8 C 60.5 29.1 60.4 29.3 60.1 29.400000000000002 L 55.2 32.2 C 54.800000000000004 32.5 54.1 32.2 54.1 31.6 z" stroke-linecap="round" />
</g>
<g transform="matrix(6.5 0 0 5.89 289.79 112.46)"  >
<path style="stroke: none; stroke-width: 1; stroke-dasharray: none; stroke-linecap: butt; stroke-dashoffset: 0; stroke-linejoin: miter; stroke-miterlimit: 4; fill: rgb(90,91,94); fill-rule: nonzero; opacity: 1;" vector-effect="non-scaling-stroke"  transform=" translate(-54.16, -21.75)" d="M 59.5 21.1 L 54.6 18.200000000000003 C 54.4 18.1 54.1 18.1 53.800000000000004 18.200000000000003 L 48.900000000000006 21.1 C 48.400000000000006 21.400000000000002 48.400000000000006 22.1 48.900000000000006 22.400000000000002 L 53.800000000000004 25.3 C 54.00000000000001 25.400000000000002 54.300000000000004 25.400000000000002 54.6 25.3 L 59.5 22.400000000000002 C 59.9 22.200000000000003 59.9 21.400000000000002 59.5 21.1 z" stroke-linecap="round" />
</g>
<g transform="matrix(6.5 0 0 5.89 85.39 145.61)"  >
<path style="stroke: none; stroke-width: 1; stroke-dasharray: none; stroke-linecap: butt; stroke-dashoffset: 0; stroke-linejoin: miter; stroke-miterlimit: 4; fill: rgb(41,146,197); fill-rule: nonzero; opacity: 1;" vector-effect="non-scaling-stroke"  transform=" translate(-22.7, -27.38)" d="M 25.9 31.6 L 25.9 25.900000000000002 C 25.9 25.6 25.799999999999997 25.400000000000002 25.5 25.3 L 20.6 22.5 C 20.1 22.2 19.5 22.6 19.5 23.1 L 19.5 28.8 C 19.5 29.1 19.6 29.3 19.9 29.400000000000002 L 24.799999999999997 32.2 C 25.199999999999996 32.6 25.9 32.2 25.9 31.6 z" stroke-linecap="round" />
</g>
<g transform="matrix(6.5 0 0 5.89 105.78 113.04)"  >
<path style="stroke: none; stroke-width: 1; stroke-dasharray: none; stroke-linecap: butt; stroke-dashoffset: 0; stroke-linejoin: miter; stroke-miterlimit: 4; fill: rgb(90,91,94); fill-rule: nonzero; opacity: 1;" vector-effect="non-scaling-stroke"  transform=" translate(-25.84, -21.85)" d="M 20.5 21.2 L 25.4 18.3 C 25.599999999999998 18.2 25.9 18.2 26.2 18.3 L 31.1 21.2 C 31.6 21.5 31.6 22.2 31.1 22.5 L 26.200000000000003 25.4 C 26.000000000000004 25.5 25.700000000000003 25.5 25.400000000000002 25.4 L 20.5 22.5 C 20.1 22.2 20.1 21.5 20.5 21.2 z" stroke-linecap="round" />
</g>
<g transform="matrix(6.5 0 0 5.89 176.34 290.08)"  >
<path style="stroke: none; stroke-width: 1; stroke-dasharray: none; stroke-linecap: butt; stroke-dashoffset: 0; stroke-linejoin: miter; stroke-miterlimit: 4; fill: rgb(41,146,197); fill-rule: nonzero; opacity: 1;" vector-effect="non-scaling-stroke"  transform=" translate(-36.7, -51.91)" d="M 34.6 47 L 39.5 49.8 C 39.7 49.9 39.9 50.199999999999996 39.9 50.5 L 39.9 56.2 C 39.9 56.800000000000004 39.3 57.1 38.8 56.800000000000004 L 33.9 54 C 33.699999999999996 53.9 33.5 53.6 33.5 53.4 L 33.5 47.699999999999996 C 33.5 47.099999999999994 34.1 46.699999999999996 34.6 46.99999999999999 z" stroke-linecap="round" />
</g>
<g transform="matrix(6.5 0 0 5.89 218.52 290.05)"  >
<path style="stroke: none; stroke-width: 1; stroke-dasharray: none; stroke-linecap: butt; stroke-dashoffset: 0; stroke-linejoin: miter; stroke-miterlimit: 4; fill: rgb(90,91,94); fill-rule: nonzero; opacity: 1;" vector-effect="non-scaling-stroke"  transform=" translate(-43.19, -51.9)" d="M 41 56.8 L 46 54 C 46.2 53.9 46.4 53.6 46.4 53.3 L 46.4 47.599999999999994 C 46.4 47 45.8 46.7 45.3 47 L 40.4 49.9 C 40.2 50 40 50.3 40 50.6 L 40 56.300000000000004 C 39.9 56.800000000000004 40.5 57.1 41 56.800000000000004 z" stroke-linecap="round" />
</g>
<g transform="matrix(6.5 0 0 5.89 84.74 220.83)"  >
<path style="stroke: none; stroke-width: 1; stroke-dasharray: none; stroke-linecap: butt; stroke-dashoffset: 0; stroke-linejoin: miter; stroke-miterlimit: 4; fill: rgb(90,91,94); fill-rule: nonzero; opacity: 1;" vector-effect="non-scaling-stroke"  transform=" translate(-22.6, -40.15)" d="M 25.8 35.9 L 25.8 41.6 C 25.8 41.9 25.7 42.1 25.400000000000002 42.2 L 20.5 45 C 20 45.3 19.4 44.9 19.4 44.4 L 19.4 38.699999999999996 C 19.4 38.4 19.5 38.199999999999996 19.799999999999997 38.099999999999994 L 24.699999999999996 35.3 C 25.199999999999996 35 25.799999999999997 35.4 25.799999999999997 35.9 z" stroke-linecap="round" />
</g>
<g transform="matrix(6.5 0 0 5.89 105.53 253.82)"  >
<path style="stroke: none; stroke-width: 1; stroke-dasharray: none; stroke-linecap: butt; stroke-dashoffset: 0; stroke-linejoin: miter; stroke-miterlimit: 4; fill: rgb(41,146,197); fill-rule: nonzero; opacity: 1;" vector-effect="non-scaling-stroke"  transform=" translate(-25.8, -45.75)" d="M 20.5 46.4 L 25.4 49.3 C 25.599999999999998 49.4 25.9 49.4 26.2 49.3 L 31.1 46.4 C 31.6 46.1 31.6 45.4 31.1 45.1 L 26.200000000000003 42.2 C 26.000000000000004 42.1 25.700000000000003 42.1 25.400000000000002 42.2 L 20.5 45.1 C 20 45.4 20 46.1 20.5 46.4 z" stroke-linecap="round" />
</g>
<g transform="matrix(6.5 0 0 5.89 287.57 252.1)"  >
<path style="stroke: none; stroke-width: 1; stroke-dasharray: none; stroke-linecap: butt; stroke-dashoffset: 0; stroke-linejoin: miter; stroke-miterlimit: 4; fill: rgb(41,146,197); fill-rule: nonzero; opacity: 1;" vector-effect="non-scaling-stroke"  transform=" translate(-54.21, -45.6)" d="M 48.9 44.9 L 53.8 42.1 C 54 42 54.3 42 54.599999999999994 42.1 L 59.49999999999999 45 C 59.99999999999999 45.3 59.99999999999999 46 59.49999999999999 46.3 L 54.599999999999994 49.099999999999994 C 54.39999999999999 49.199999999999996 54.099999999999994 49.199999999999996 53.89999999999999 49.099999999999994 L 49 46.2 C 48.4 45.900000000000006 48.4 45.2 48.9 44.900000000000006 z" stroke-linecap="round" />
</g>
<g transform="matrix(6.5 0 0 5.89 310.48 219.99)"  >
<path style="stroke: none; stroke-width: 1; stroke-dasharray: none; stroke-linecap: butt; stroke-dashoffset: 0; stroke-linejoin: miter; stroke-miterlimit: 4; fill: rgb(90,91,94); fill-rule: nonzero; opacity: 1;" vector-effect="non-scaling-stroke"  transform=" translate(-57.35, -40.01)" d="M 60.6 44.3 L 60.6 38.599999999999994 C 60.6 38.3 60.5 38.099999999999994 60.2 37.89999999999999 L 55.2 35.099999999999994 C 54.7 34.8 54.1 35.199999999999996 54.1 35.699999999999996 L 54.1 41.4 C 54.1 41.699999999999996 54.2 41.9 54.5 42.1 L 59.5 44.9 C 60 45.199999999999996 60.6 44.9 60.6 44.3 z" stroke-linecap="round" />
</g>
<g transform="matrix(6.5 0 0 5.89 218.56 75.3)"  >
<path style="stroke: none; stroke-width: 1; stroke-dasharray: none; stroke-linecap: butt; stroke-dashoffset: 0; stroke-linejoin: miter; stroke-miterlimit: 4; fill: rgb(90,91,94); fill-rule: nonzero; opacity: 1;" vector-effect="non-scaling-stroke"  transform=" translate(-43.2, -15.44)" d="M 45.3 20.4 L 40.4 17.5 C 40.2 17.4 40 17.1 40 16.8 L 40 11.100000000000001 C 40 10.500000000000002 40.6 10.200000000000001 41.1 10.500000000000002 L 46 13.400000000000002 C 46.2 13.500000000000002 46.4 13.800000000000002 46.4 14.000000000000002 L 46.4 19.700000000000003 C 46.4 20.300000000000004 45.8 20.700000000000003 45.3 20.400000000000002 z" stroke-linecap="round" />
</g>
<g transform="matrix(6.5 0 0 5.89 176.69 75.22)"  >
<path style="stroke: none; stroke-width: 1; stroke-dasharray: none; stroke-linecap: butt; stroke-dashoffset: 0; stroke-linejoin: miter; stroke-miterlimit: 4; fill: rgb(41,146,197); fill-rule: nonzero; opacity: 1;" vector-effect="non-scaling-stroke"  transform=" translate(-36.75, -15.43)" d="M 38.9 10.5 L 33.9 13.3 C 33.699999999999996 13.4 33.5 13.700000000000001 33.5 14 L 33.5 19.7 C 33.5 20.3 34.1 20.599999999999998 34.6 20.3 L 39.6 17.5 C 39.8 17.4 40 17.1 40 16.9 L 40 11.2 C 40.1 10.6 39.4 10.299999999999999 38.9 10.5 z" stroke-linecap="round" />
</g>
<g transform="matrix(6.5 0 0 5.89 547.26 383.4)" style="" id="text3405"  >
		<text xml:space="preserve" font-family="sans-serif" font-size="40" font-style="normal" font-weight="normal" style="stroke: none; stroke-width: 1; stroke-dasharray: none; stroke-linecap: butt; stroke-dashoffset: 0; stroke-linejoin: miter; stroke-miterlimit: 4; fill: rgb(0,0,0); fill-rule: nonzero; opacity: 1; white-space: pre;" ></text>
</g>
<g transform="matrix(6.5 0 0 5.89 578.94 531)" style="" id="text3409"  >
		<text xml:space="preserve" font-family="'Rockwell Extra Bold'" font-size="15" font-style="normal" font-weight="800" style="stroke: none; stroke-width: 1; stroke-dasharray: none; stroke-linecap: butt; stroke-dashoffset: 0; stroke-linejoin: miter; stroke-miterlimit: 4; fill: rgb(0,0,0); fill-rule: nonzero; opacity: 1; white-space: pre;" ></text>
</g>
<g transform="matrix(1 0 0 0.91 573.09 203.83)" style="" id="2e5ab20f-b32a-419f-bea2-cd2317f73c8e"  >
		<text xml:space="preserve" font-family="Raleway" font-size="105" font-style="normal" font-weight="900" style="stroke: none; stroke-width: 1; stroke-dasharray: none; stroke-linecap: butt; stroke-dashoffset: 0; stroke-linejoin: miter; stroke-miterlimit: 4; fill: rgb(41,146,197); fill-rule: nonzero; opacity: 1; white-space: pre;" ><tspan x="-183.38" y="32.98" style="white-space: pre; ">I M O X </tspan></text>
</g>
<g transform="matrix(1 0 0 1 427.16 370.5)" style="" id="1bd6a7ca-727c-4dde-b18a-f02acecd4093"  >
		<text xml:space="preserve" font-family="Lato" font-size="40" font-style="normal" font-weight="400" style="stroke: none; stroke-width: 1; stroke-dasharray: none; stroke-linecap: butt; stroke-dashoffset: 0; stroke-linejoin: miter; stroke-miterlimit: 4; fill: rgb(0,0,0); fill-rule: nonzero; opacity: 1; white-space: pre;" ><tspan x="-250.58" y="12.57" style="white-space: pre; ">S O L U C I O N E S          W E B</tspan></text>
</g>
</svg>