<?xml version="1.0" standalone="yes"?>
<svg xmlns="http://www.w3.org/2000/svg" width="446" height="474">
<path style="fill:#feffff; stroke:none;" d="M0 0L0 474L446 474L446 0L0 0z"/>
<path style="fill:#ed1d25; stroke:none;" d="M312 9C312.641 16.8523 318.897 29.5352 314.972 36.9568C310.459 45.4891 292.336 49.675 284 53.348C258.559 64.5568 230.011 76.4917 206.424 90.8943C197.008 96.6444 187.394 104.73 179 111.87C173.449 116.591 167.349 122.06 160 118C153.261 125.926 148.643 135.543 142.572 144C129.267 162.535 115.885 179.946 108.745 202C103.942 216.836 104.675 232.085 101 247C112.646 246.999 135.341 240.364 139.505 228C143.115 217.277 138.825 203.506 144.97 194.004C161.571 168.331 188.81 149.793 214 133C223.782 126.478 234.821 117.558 247 117L247 113C255.064 112.274 262.056 106.71 269 102.861C280.638 96.4096 292.835 90.518 305 85.1396C309.977 82.9393 321.374 75.5021 326.722 78.9159C333.477 83.2279 333.145 100.832 335 108C345.897 97.314 349.639 79.7284 355.709 66C357.706 61.4846 362.233 55.1916 361.301 50.0146C360.446 45.2648 354.319 41.1659 351 38.0887C340.414 28.2757 326.064 13.1678 312 9z"/>
<path style="fill:#f7ffd7; stroke:none;" d="M323 15L324 16L323 15M324 16L325 17L324 16M327 18L328 19L327 18M328 19L329 20L328 19M332 22L333 23L332 22M333 23L334 24L333 23M334 24L335 25L334 24M337 26L338 27L337 26M338 27L339 28L338 27M339 28L340 29L339 28M343 31L344 32L343 31M344 32L345 33L344 32M345 33L346 34L345 33M308 42L309 43L308 42M357 44L358 45L357 44M301 45L302 46L301 45M360 47L361 48L360 47M361 48L362 49L361 48M324.667 77.3333L325.333 77.6667L324.667 77.3333M328 79L329 80L328 79M347 84L348 85L347 84z"/>
<path style="fill:#01a3e9; stroke:none;" d="M161 120C181.792 119.826 191.652 95.4241 210 90C195.848 84.0616 178.986 99.0255 170 108C166.371 111.625 161.879 114.753 161 120z"/>
<path style="fill:#f7ffd7; stroke:none;" d="M192 92L193 93L192 92M287 93L288 94L287 93M186 94L187 95L186 94M183 95L184 96L183 95M281 96L282 97L281 96M279 97L280 98L279 97M277 98L278 99L277 98M275 99L276 100L275 99M273 100L274 101L273 100M271 101L272 102L271 101M269 102L270 103L269 102M339 102L340 103L339 102M267 103L268 104L267 103z"/>
<path style="fill:#01a3e9; stroke:none;" d="M63 177C62.9317 185.138 61.1784 196.544 55.4676 202.775C48.5951 210.275 36.8206 214.065 29.3295 221.379C25.5158 225.102 24.2571 230.549 21.5324 235C19.3887 238.502 15.7767 241.742 15.2724 246C13.6795 259.449 34.4224 262.261 35.6821 273.015C36.5841 280.716 32.3161 288.833 30.2091 296C27.2564 306.044 24.9482 317.6 23.8341 328C23.1726 334.175 21.8863 343.163 25.179 348.867C30.9641 358.887 40.3977 347.898 43.2153 342C49.7359 328.351 53.8123 312.528 58 298C59.7373 291.973 63.3291 286.184 64 280C94.5349 280 124.134 274.826 153 265L186 332C189.716 332.88 201.098 341.827 203.264 334.941C204.377 331.401 199.322 325.959 197.784 323C192.764 313.342 188.444 303.103 184.4 293C170.904 259.288 157.004 220.805 157 184C135.853 192.779 146.208 211.256 139.147 228C133.389 241.654 110.096 247 97 247C96.6021 239.247 90.5961 234.956 89.3881 227.985C88.4354 222.488 93.7685 219.133 94.2801 214C94.9113 207.666 89.5243 202.607 90.2932 196C92.2735 178.985 99.5293 162.743 102.997 146C104.249 139.956 107.177 130.804 103.142 125.228C97.8086 117.856 86.2473 122.81 79 120.626C72.2214 118.582 57.8416 104.036 51.1474 107.136C47.4921 108.828 46.4969 115.695 44.6867 119C38.4712 130.35 34.3311 140.221 31.6852 153C30.9155 156.717 25.7081 162.19 27.7508 165.787C32.3017 173.802 54.6776 176.32 63 177z"/>
<path style="fill:#f7ffd7; stroke:none;" d="M54 106L55 107L54 106M49 107L50 108L49 107M56 107L57 108L56 107M57 108L58 109L57 108M59 109L60 110L59 109M62 111L63 112L62 111M64 112L65 113L64 112z"/>
<path style="fill:#01a3e9; stroke:none;" d="M247 113C247.317 122.563 270.119 138.165 279 141L256 112L247 113z"/>
<path style="fill:#f7ffd7; stroke:none;" d="M65 113L66 114L65 113M67 114L68 115L67 114M68 115L69 116L68 115M70 116L71 117L70 116M45 117L46 118L45 117M71 117L72 118L71 117M160 117L161 118L160 117M241 117L242 118L241 117M259 117L260 118L259 117M73 118L74 119L73 118M159 118L160 119L159 118M238 118L239 119L238 118M246 118L247 119L246 118M260 118L261 119L260 118M44 119L45 120L44 119M75.6667 119.333L76.3333 119.667L75.6667 119.333M236 119L237 120L236 119M248 119L249 120L248 119M261 119L262 120L261 119z"/>
<path style="fill:#feffff; stroke:none;" d="M55 120L73 138L53 131L65 145L49 144L65 158C60.4411 158.651 44.9897 154.979 42.4074 159.548C39.1748 165.267 60.5695 168.557 63.9846 167.254C71.6129 164.344 82.2329 137.532 77.0671 130.275C72.9591 124.504 61.4694 121.837 55 120z"/>
<path style="fill:#f7ffd7; stroke:none;" d="M56.6667 120.333L57.3333 120.667L56.6667 120.333M78 120L79 121L78 120M249 120L250 121L249 120M262 120L263 121L262 120M43 121L44 122L43 121M60 121L61 122L60 121M81 121L81 122L85 122L81 121M96.6667 121.333L97.3333 121.667L96.6667 121.333M232 121L233 122L232 121M251 121L252 122L251 121M263 121L264 122L263 121M55 122L56 123L55 122M63 122L64 123L63 122M100 122L101 123L100 122M155 122L156 123L155 122M230 122L231 123L230 122M253 122L254 123L253 122z"/>
<path style="fill:#01a3e9; stroke:none;" d="M321 128C333.78 136.03 347.309 131.542 358.907 144.004C371.456 157.488 374.007 175.371 374 193C373.985 232.352 353.61 268.012 348 306C367.399 305.771 370.736 275.365 374.374 261C382.879 227.422 395.962 187.77 387.104 153C380.253 126.105 344.319 113.94 321 128z"/>
<path style="fill:#f7ffd7; stroke:none;" d="M56 123L57 124L56 123M65 123L66 124L65 123M228 123L229 124L228 123M254 123L255 124L254 123M58 124L59 125L58 124M67 124L68 125L67 124M256 124L257 125L256 124M332 124L332 125L335 125L332 124M40 125L41 126L40 125M59 125L60 126L59 125M69 125L70 126L69 125M225 125L226 126L225 125M257 125L258 126L257 125M326 125L326 126L329 126L326 125M361 125L362 126L361 125M61 126L62 127L61 126M104.333 126.667L104.667 127.333L104.333 126.667M223 126L224 127L223 126M268 126L269 127L268 126M323 126L324 127L323 126M364 126L365 127L364 126M63 127L64 128L63 127M153 127L154 128L153 127M260 127L261 128L260 127M269 127L270 128L269 127M320.333 127.667L320.667 128.333L320.333 127.667M366 127L367 128L366 127M38 128L39 129L38 128M64 128L65 129L64 128M220 128L221 129L220 128M261 128L262 129L261 128M270 128L271 129L270 128M368 128L369 129L368 128M37 129L38 130L37 129M66 129L67 130L66 129M262 129L263 130L262 129M322.667 129.333L323.333 129.667L322.667 129.333M370 129L371 130L370 129M67 130L68 131L67 130M263 130L264 131L263 130M325.667 130.333L326.333 130.667L325.667 130.333M371 130L372 131L371 130M36 131L37 132L36 131M68 131L69 132L68 131M78 131L79 132L78 131z"/>
<path style="fill:#feffff; stroke:none;" d="M91 131C79.5391 149.163 75.339 173.445 69.8843 194C69.046 197.159 63.412 214.027 69.213 215.079C75.0788 216.142 77.5797 199.644 78.5764 196C83.6762 177.356 98.7069 150.307 93 131L91 131z"/>
<path style="fill:#f7ffd7; stroke:none;" d="M93 131L94 132L93 131M330 131L330 132L333 132L330 131M52 132L53 133L52 132M69 132L70 133L69 132M273 132L274 133L273 132M336 132L336 133L339 133L336 132M374 132L375 133L374 132M53 133L54 134L53 133M70 133L71 134L70 133M89 133L90 134L89 133M71 134L72 135L71 134M78 134L79 135L78 134M377 135L378 136L377 135M36.3333 136.667L36.6667 137.333L36.3333 136.667M72.3333 136.667L72.6667 137.333L72.3333 136.667M208 136L209 137L208 136M378 136L379 137L378 136M87 137L88 138L87 137M94.3333 137.667L94.6667 138.333L94.3333 137.667M379 137L380 138L379 137M58 138L59 139L58 138M67 138L68 139L67 138M104.333 138.667L104.667 139.333L104.333 138.667M205 138L206 139L205 138M36.3333 139.667L36.6667 140.333L36.3333 139.667M59 139L60 140L59 139M86 139L87 140L86 139M60 140L61 141L60 140M202 140L203 141L202 140M381 140L382 141L381 140M61 141L62 142L61 141M62 142L63 143L62 142M85 142L86 143L85 142M357 142L358 143L357 142M49 143L50 144L49 143M57 143L58 144L57 143M103.333 143.667L103.667 144.333L103.333 143.667M198 143L199 144L198 143M358 143L359 144L358 143M383 143L384 144L383 143M48 144L49 145L48 144M62 144L63 145L62 144M142 144L143 145L142 144M359 144L360 145L359 144M84 145L85 146L84 145M195 145L196 146L195 145M360 145L361 146L360 145M384 145L385 146L384 145M49 146L50 147L49 146M361 146L362 147L361 146M32 147L33 148L32 147M50 147L51 148L50 147M74 147L75 148L74 147M52 148L53 149L52 148M102 148L103 149L102 148M139 148L140 149L139 148M191 148L192 149L191 148M362 148L363 149L362 148M54 149L55 150L54 149M363 149L364 150L363 149M56 150L57 151L56 150M386 150L387 151L386 150M31 151L31 155L32 155L31 151M58 151L59 152L58 151M73 151L74 152L73 151M187 151L188 152L187 151M364 151L365 152L364 151M101 152L102 153L101 152M365 152L366 153L365 152M61 153L62 154L61 153M72 154L73 155L72 154M366 154L367 155L366 154M387 154L388 155L387 154M90 156L91 157L90 156M100 156L101 157L100 156M367 156L368 157L367 156M30 157L31 158L30 157M45 157L45 158L49 158L45 157M50.6667 157.333L51.3333 157.667L50.6667 157.333M71 157L72 158L71 157M59 158L59 159L63 159L59 158M368.333 158.667L368.667 159.333L368.333 158.667M388.333 158.667L388.667 159.333L388.333 158.667M41 159L42 160L41 159M89 159L90 160L89 159M70 160L71 161L70 160M99 160L100 161L99 160M41 161L42 162L41 161M369 161L370 162L369 161M69 162L70 163L69 162M88 162L89 163L88 162M44 163L45 164L44 163M98 163L99 164L98 163M46 164L47 165L46 164M68 164L69 165L68 164M370.333 164.667L370.667 165.333L370.333 164.667M26 165L27 166L26 165M67 165L68 166L67 165M27 166L28 167L27 166M66 166L67 167L66 166M250 166L251 167L250 166z"/>
<path style="fill:#01a3e9; stroke:none;" d="M286 182C292.051 179.505 297.104 175.653 304 177.804C322.37 183.534 327.92 209.559 312.96 221.467C306.539 226.578 296.917 225.301 290.17 221.204C286.921 219.23 283.242 214.522 279 215.407C269.608 217.368 263.541 232.575 252 226.821C232.981 217.339 230.201 183.878 252 176.41C259.333 173.897 264.346 177.582 271 180L275 177C254.86 157.728 233.432 170.626 229.439 196C227.36 209.216 234.634 224.471 245.004 232.606C259.17 243.719 268.64 229.356 282 227.526C291.451 226.232 298.782 237.677 310 235.671C336.368 230.954 332.616 196.057 319.715 181C315.177 175.705 310.423 169.462 303 168.558C295.352 167.626 282.875 173.031 286 182z"/>
<path style="fill:#f7ffd7; stroke:none;" d="M256.667 166.333L257.333 166.667L256.667 166.333M28 167L29 168L28 167M56.6667 167.333L57.3333 167.667L56.6667 167.333M64 167L65 168L64 167M97 167L98 168L97 167M247 167L248 168L247 167M371.333 167.667L371.667 168.333L371.333 167.667M30 168L31 169L30 168M296 168L296 169L300 169L296 168M303 168L304 169L303 168M32 169L33 170L32 169M244 169L245 170L244 169M307 169L308 170L307 169M34 170L35 171L34 170M96 170L97 171L96 170M265 170L266 171L265 170z"/>
<path style="fill:#01a3e9; stroke:none;" d="M179 173C181.92 175.994 186.629 175.836 189.146 179.228C192.124 183.243 191.848 189.285 192.59 194C194.472 205.954 195.064 218.031 197.081 230C202.175 260.229 208.281 294.117 227.503 318.996C238.441 333.152 252.346 339.458 270 336.704C276.226 335.732 283.813 333.807 287 328C267.166 328 237.319 326.817 232 302C249.625 308.57 283.64 312.101 301 304C299.617 298.023 295.733 291.258 297.434 285.004C300.55 273.547 322.269 268.465 330 260C308.41 260.46 289.734 273.104 267 270.829C222.196 266.347 202.628 208.92 201 171L179 173z"/>
<path style="fill:#f7ffd7; stroke:none;" d="M201 171L201 177L202 177L201 171M267 171L268 172L267 171M290 171L291 172L290 171M310 171L311 172L310 171M372.333 171.667L372.667 172.333L372.333 171.667M41 172L42 173L41 172M85 172L86 173L85 172M179 172L180 173L179 172M45 173L46 174L45 173M178 173L179 174L178 173M270 173L271 174L270 173M49 174L50 175L49 174M75.3333 174.667L75.6667 175.333L75.3333 174.667M179 174L180 175L179 174M286 174L287 175L286 174M53.6667 175.333L54.3333 175.667L53.6667 175.333M84 175L85 176L84 175M255 175L255 176L261 176L255 175M273 175L274 176L273 175M285 175L286 176L285 175M57.6667 176.333L58.3333 176.667L57.6667 176.333M158 176L159 177L158 176M185.667 176.333L186.333 176.667L185.667 176.333M237 176L238 177L237 176M262.667 176.333L263.333 176.667L262.667 176.333M284 176L285 177L284 176M62 177L63 178L62 177M188 177L189 178L188 177M265 177L266 178L265 177M272 177L273 178L272 177M283 177L284 178L283 177M303 177L304 178L303 177M373 177L373 180L374 180L373 177M74 178L75 179L74 178M189 178L190 179L189 178M266.667 178.333L267.333 178.667L266.667 178.333M292 178L293 179L292 178M306 178L307 179L306 178M235 179L236 180L235 179M245 179L246 180L245 179M268 179L269 180L268 179M290 179L291 180L290 179M308 179L309 180L308 179M244 180L245 181L244 180M270.667 180.333L271.333 180.667L270.667 180.333M309 180L310 181L309 180M73 181L74 182L73 181M190 181L191 182L190 181M82 182L83 183L82 182z"/>
<path style="fill:#feffff; stroke:none;" d="M155.333 182.667L155.667 183.333L155.333 182.667z"/>
<path style="fill:#f7ffd7; stroke:none;" d="M156.333 182.667L156.667 183.333L156.333 182.667M116 183L117 184L116 183M72.3333 184.667L72.6667 185.333L72.3333 184.667z"/>
<path style="fill:#feffff; stroke:none;" d="M154 184L155 185L154 184z"/>
<path style="fill:#f7ffd7; stroke:none;" d="M81 185L82 186L81 185z"/>
<path style="fill:#feffff; stroke:none;" d="M153 185L154 186L153 185z"/>
<path style="fill:#f7ffd7; stroke:none;" d="M191.333 185.667L191.667 186.333L191.333 185.667M314 185L315 186L314 185z"/>
<path style="fill:#feffff; stroke:none;" d="M152 186L153 187L152 186z"/>
<path style="fill:#f7ffd7; stroke:none;" d="M238 186L239 187L238 186M315 186L316 187L315 186M316 187L317 188L316 187M71 188L72 189L71 188M80.3333 188.667L80.6667 189.333L80.3333 188.667M202 188L202 191L203 191L202 188M237 189L238 190L237 189M317 189L318 190L317 189M230 190L231 191L230 190M326 190L327 191L326 190M70 191L71 192L70 191M318 191L319 192L318 191M79.3333 192.667L79.6667 193.333L79.3333 192.667M157 192L157 195L158 195L157 192M253 192L253 193L256 193L253 192M327 192L328 193L327 192M192.333 193.667L192.667 194.333L192.333 193.667z"/>
<path style="fill:#01a3e9; stroke:none;" d="M251.109 194.032C241.4 199.285 246.811 219.059 258.695 211.972C266.805 207.136 260.076 189.181 251.109 194.032z"/>
<path style="fill:#f7ffd7; stroke:none;" d="M257 193L258 194L257 193M203.333 194.667L203.667 195.333L203.333 194.667M258 194L259 195L258 194M388.333 194.667L388.667 195.333L388.333 194.667M59 195L60 196L59 195M69 195L70 196L69 195M229 195L230 196L229 195M259 195L260 196L259 195M320 195L321 196L320 195M328 195L329 196L328 195M78 196L79 197L78 196M110 197L111 198L110 197M260 197L261 198L260 197M292.667 197.333L293.333 197.667L292.667 197.333M321.333 197.667L321.667 198.333L321.333 197.667M58 198L59 199L58 198M289 198L288 200L289 198z"/>
<path style="fill:#01a3e9; stroke:none;" d="M290.133 199.032C279.446 205.01 290.098 220.266 300.852 214.231C309.17 209.564 298.034 194.612 290.133 199.032z"/>
<path style="fill:#f7ffd7; stroke:none;" d="M296 198L297 199L296 198M329 198L330 199L329 198M68 199L69 200L68 199M77.3333 199.667L77.6667 200.333L77.3333 199.667M158 199L158 202L159 202L158 199M204.333 199.667L204.667 200.333L204.333 199.667M261 199L262 200L261 199M57 200L58 201L57 200M299 200L300 201L299 200M246 201L247 202L246 201M300 201L301 202L300 201M373.333 201.667L373.667 202.333L373.333 201.667M387.333 201.667L387.667 202.333L387.333 201.667M90 202L91 203L90 202M262.333 202.667L262.667 203.333L262.333 202.667M286.333 202.667L286.667 203.333L286.333 202.667M301 202L302 203L301 202M322 202L322 205L323 205L322 202M55 203L56 204L55 203M205 203L206 204L205 203M330 203L330 209L331 209L330 203M54 204L55 205L54 204M91 204L92 205L91 204M159 205L159 208L160 208L159 205M92 206L93 207L92 206M206 206L207 207L206 206M229 206L229 209L230 209L229 206M386.333 207.667L386.667 208.333L386.333 207.667M46 208L47 209L46 208M93 208L94 209L93 208M372.333 208.667L372.667 209.333L372.333 208.667M207 209L208 210L207 209M246 209L247 210L246 209M304.333 209.667L304.667 210.333L304.333 209.667M321 209L322 210L321 209M43 210L44 211L43 210M230.333 210.667L230.667 211.333L230.333 210.667M238 210L239 211L238 210M42 211L43 212L42 211M73 211L74 212L73 211M160.333 211.667L160.667 212.333L160.333 211.667M194.333 211.667L194.667 212.333L194.333 211.667M247 211L248 212L247 211M286 211L287 212L286 211M208 212L209 213L208 212M239 212L240 213L239 212M248 212L249 213L248 212M72 213L73 214L72 213M231.333 213.667L231.667 214.333L231.333 213.667M287 213L288 214L287 213M302 213L303 214L302 213M385.333 213.667L385.667 214.333L385.333 213.667M209.333 214.667L209.667 215.333L209.333 214.667M280 214L281 215L280 214M329 214L330 215L329 214M371 214L372 215L371 214M94 215L95 216L94 215M232.333 215.667L232.667 216.333L232.333 215.667M277 215L278 216L277 215M297.667 215.333L298.333 215.667L297.667 215.333M318 215L319 216L318 215M36 216L37 217L36 216M54.6667 216.333L55.3333 216.667L54.6667 216.333M161.333 216.667L161.667 217.333L161.333 216.667M276 216L277 217L276 216M283 216L284 217L283 216z"/>
<path style="fill:#feffff; stroke:none;" d="M40 245C43.6954 246.087 71.7779 256.439 60.99 241.329C58.062 237.228 53.0417 235.217 50 231C54.4437 230.958 70.9013 241.941 70.6235 231.981C70.4085 224.273 58.3312 215.306 51 217.703C40.1286 221.257 37.1509 230.393 31.8565 239C30.13 241.807 26.7829 244.521 26.5448 248C25.9105 257.267 43.8378 264.668 50.9992 266.386C54.4675 267.218 59.6607 265.91 58.1489 261.184C56.1167 254.832 43.6616 251.913 40 245z"/>
<path style="fill:#f7ffd7; stroke:none;" d="M210 217L211 218L210 217M275 217L276 218L275 217M33 218L34 219L33 218M48 218L49 219L48 218M59 218L60 219L59 218M92 218L93 219L92 218M233 218L234 219L233 218M316 218L317 219L316 218M384.333 218.667L384.667 219.333L384.333 218.667M31 219L32 220L31 219M47 219L48 220L47 219M195.333 219.667L195.667 220.333L195.333 219.667M211 219L212 220L211 219M234 219L235 220L234 219M243 219L244 220L243 219M315 219L316 220L315 219M370.333 219.667L370.667 220.333L370.333 219.667M29 220L30 221L29 220M45 220L46 221L45 220M314 220L315 221L314 220M327 220L328 221L327 220M44 221L45 222L44 221M63 221L64 222L63 221M90 221L91 222L90 221M162.333 221.667L162.667 222.333L162.333 221.667M212 221L213 222L212 221M235 221L236 222L235 221M270 221L271 222L270 221M313 221L314 222L313 221M64 222L65 223L64 222M269 222L270 223L269 222M326 222L327 223L326 222M27 223L28 224L27 223M41 223L42 224L41 223M65 223L66 224L65 223M89 223L90 224L89 223M213 223L214 224L213 223M296 223L297 224L296 223M310 223L311 224L310 223M383.333 223.667L383.667 224.333L383.333 223.667M40 224L41 225L40 224M66 224L67 225L66 224M237 224L238 225L237 224M266 224L267 225L266 224M299 224L300 225L299 224M307.667 224.333L308.333 224.667L307.667 224.333M325 224L326 225L325 224M369 224L370 225L369 224M39 225L40 226L39 225M67 225L68 226L67 225M238 225L239 226L238 225M249 225L250 226L249 225M324 225L325 226L324 225M25 226L26 227L25 226M38 226L39 227L38 226M88.3333 226.667L88.6667 227.333L88.3333 226.667M163.333 226.667L163.667 227.333L163.333 226.667M196.333 226.667L196.667 227.333L196.333 226.667M250 226L251 227L250 226M263 226L264 227L263 226M37 227L38 228L37 227M252 227L253 228L252 227M280 227L281 228L280 227M285 227L286 228L285 227M240 228L241 229L240 228M278 228L279 229L278 228M287 228L288 229L287 228M322 228L323 229L322 228M382 228L383 229L382 228M24 229L25 230L24 229M70 229L71 230L70 229M241 229L242 230L241 229M368 229L369 230L368 229M35 230L36 231L35 230M164.333 230.667L164.667 231.333L164.333 230.667M242 230L243 231L242 230M290 230L291 231L290 230M23 231L24 232L23 231z"/>
<path style="fill:#feffff; stroke:none;" d="M205 231C205.003 234.865 206.308 258.185 213.581 255.503C220.876 252.813 208.838 233.289 205 231z"/>
<path style="fill:#f7ffd7; stroke:none;" d="M243 231L244 232L243 231M273 231L274 232L273 231M291 231L292 232L291 231M34 232L35 233L34 232M197.333 232.667L197.667 233.333L197.333 232.667M204 232L204 236L205 236L204 232M207 232L208 233L207 232M244 232L245 233L244 232M271 232L272 233L271 232M293 232L294 233L293 232M317 232L318 233L317 232M381.333 232.667L381.667 233.333L381.333 232.667M22 233L23 234L22 233M208 233L209 234L208 233M245 233L246 234L245 233M294 233L295 234L294 233M247 234L248 235L247 234M296.667 234.333L297.333 234.667L296.667 234.333M367 234L368 235L367 234M21 235L22 236L21 235M165 235L166 236L165 235M209 235L210 236L209 235M248.667 235.333L249.333 235.667L248.667 235.333M299 235L300 236L299 235M33 236L34 237L33 236M251.667 236.333L252.333 236.667L251.667 236.333M303.667 236.333L304.333 236.667L303.667 236.333M380 237L381 238L380 237z"/>
<path style="fill:#23b14d; stroke:none;" d="M400 237C395.452 248.722 390.008 259.164 390 272L389 272L389 270L388 270C385.666 280.088 380.982 305.509 372 311L372 312C386.021 325.731 362.004 342.428 354 350C358.632 360.98 343.321 371.447 338 379C350.771 384.117 347.566 396.441 340.384 404.985C328.362 419.288 309.923 424.637 293 430L296 440C300.604 439.055 305.222 437.058 309.985 438.514C314.158 439.789 317.094 445.337 321.872 444.458C327.123 443.491 330.593 434.88 336 432.533C351.815 425.668 378.414 428.791 389.106 411.985C396.777 399.93 393.502 375.977 395.285 362C396.43 353.034 403.603 340.297 402 332C408.918 330.81 414.889 314.923 418.576 309C428.459 293.126 440.727 274.574 426.532 257C423.146 252.809 419.16 249.027 415 245.616C410.397 241.841 405.826 238.472 400 237z"/>
<path style="fill:#f7ffd7; stroke:none;" d="M402 237L403 238L402 237M19 238L20 239L19 238M32 238L33 239L32 238M366 238L367 239L366 238M399 238L400 239L399 238M102 239L103 240L102 239M166.333 239.667L166.667 240.333L166.333 239.667M211 239L212 240L211 239M406 239L407 240L406 239M143.667 240.333L144.333 240.667L143.667 240.333M205.333 240.667L205.667 241.333L205.333 240.667M398 240L399 241L398 240M408 240L409 241L408 240M30 241L31 242L30 241M61 241L62 242L61 241M141 241L142 242L141 241z"/>
<path style="fill:#feffff; stroke:none;" d="M114 254C107.336 259.048 93.7821 252.717 87.4267 258.738C81.4915 264.362 97.3679 265.933 100 265.985C113.033 266.241 127.485 263.342 139 257.218C142.873 255.159 153.509 246.602 145.566 242.086C142.179 240.161 138.455 244.663 136 246.367C130.221 250.376 121.123 254.291 114 254z"/>
<path style="fill:#f7ffd7; stroke:none;" d="M146 241L147 242L146 241M212 241L213 242L212 241M379 241L380 242L379 241M409 241L410 242L409 241M29 242L30 243L29 242M81 242L82 243L81 242z"/>
<path style="fill:#feffff; stroke:none;" d="M83 273L78.5417 260L88 243C68.6235 238.842 61.9054 279.047 83 273z"/>
<path style="fill:#f7ffd7; stroke:none;" d="M86 242L87 243L86 242M15 243L16 244L15 243M28 243L29 244L28 243M62 243L63 244L62 243M79 243L80 244L79 243M147 243L148 244L147 243M167.333 243.667L167.667 244.333L167.333 243.667M199.333 243.667L199.667 244.333L199.333 243.667M213 243L214 244L213 243M225 243L226 244L225 243M412 243L413 244L412 243M27 244L28 245L27 244M226 244L227 245L226 244M413 244L414 245L413 244M26 245L27 246L26 245M137 245L138 246L137 245M148 245L148 249L149 249L148 245M206.333 245.667L206.667 246.333L206.333 245.667M378 245L379 246L378 245M414 245L415 246L414 245M87 246L88 247L87 246M136 246L137 247L136 246M214 246L215 247L214 246M75 247L76 248L75 247M134 247L135 248L134 247M168 247L169 248L168 247M228 247L229 248L228 247M364 247L365 248L364 247M395 247L396 248L395 247M62 248L63 249L62 248M74 248L75 249L74 248M132 248L133 249L132 248M207.333 248.667L207.667 249.333L207.333 248.667M229 248L230 249L229 248M418 248L419 249L418 248M85 249L86 250L85 249M130 249L131 250L130 249M200 249L201 250L200 249M215.333 249.667L215.667 250.333L215.333 249.667M377 249L378 250L377 249M394.333 249.667L394.667 250.333L394.333 249.667M419 249L420 250L419 249M26 250L27 251L26 250M52 250L52 251L56 251L52 250M61 250L62 251L61 250M73 250L74 251L73 250M84 250L85 251L84 250M169.333 250.667L169.667 251.333L169.333 250.667M125 251L126 252L125 251M208.333 251.667L208.667 252.333L208.333 251.667M363 251L364 252L363 251M72 252L73 253L72 252M122 252L123 253L122 252M393 252L394 253L393 252M119 253L120 254L119 253M201.333 253.667L201.667 254.333L201.333 253.667M376 253L377 254L376 253M18 254L19 255L18 254M71 254L72 255L71 254M115 254L116 255L115 254M143 254L144 255L143 254M170.333 254.667L170.667 255.333L170.333 254.667M209 254L210 255L209 254M215 254L216 255L215 254M424 254L425 255L424 254M104 255L104 256L114 256L104 255M210 255L211 256L210 255M362 255L363 256L362 255M392 255L393 256L392 255M425 255L426 256L425 255M79 256L80 257L79 256M93 256L93 257L101 257L93 256M140 256L141 257L140 256M211 256L212 257L211 256M213 256L214 257L213 256M375.333 256.667L375.667 257.333L375.333 256.667M70 257L71 258L70 257M88 257L89 258L88 257M138 257L139 258L138 257M171.333 257.667L171.667 258.333L171.333 257.667M56 258L57 259L56 258M86 258L87 259L86 258M136 258L137 259L136 258M202 258L203 259L202 258M218 258L219 259L218 258z"/>
<path style="fill:#feffff; stroke:none;" d="M219 258C215.133 268.325 219.868 295.9 235.956 293.381C251.781 290.904 236.006 269.66 230.999 265.44C227.294 262.316 223.46 259.87 219 258z"/>
<path style="fill:#f7ffd7; stroke:none;" d="M220 258L221 259L220 258M391 258L392 259L391 258M427 258L428 259L427 258M134 259L135 260L134 259M222 259L223 260L222 259M240 259L241 260L240 259M328 259L328 260L331 261L328 259M361 259L362 260L361 259M428 259L429 260L428 259M58 260L59 261L58 260M69 260L69 263L70 263L69 260M374 260L375 261L374 260M429 260L430 261L429 260M85.3333 261.667L85.6667 262.333L85.3333 261.667M172 261L173 262L172 261M217.333 261.667L217.667 262.333L217.333 261.667M243 261L244 262L243 261M320 261L321 262L320 261M329 261L330 262L329 261M390.333 261.667L390.667 262.333L390.333 261.667M42 262L43 263L42 262M125 262L126 263L125 262M203 262L204 263L203 262M244 262L245 263L244 262M430 262L431 263L430 262M78 263L79 264L78 263M86 263L87 264L86 263M121 263L122 264L121 263M228 263L229 264L228 263M246 263L247 264L246 263M325 263L326 264L325 263M58 264L59 265L58 264M88 264L89 265L88 264M116 264L117 265L116 264M173 264L174 265L173 264M229 264L230 265L229 264M247 264L248 265L247 264M311 264L312 265L311 264M373 264L374 265L373 264M389 264L389 272L390 272L389 264M29 265L30 266L29 265M79 265L80 266L79 265M93.6667 265.333L94.3333 265.667L93.6667 265.333M107.667 265.333L108.333 265.667L107.667 265.333M151.667 265.333L152.333 265.667L151.667 265.333M249 265L250 266L249 265M321 265L322 266L321 265M431 265L432 266L431 265M69.3333 266.667L69.6667 267.333L69.3333 266.667M148 266L149 267L148 266M153 266L154 267L153 266M174.333 266.667L174.667 267.333L174.333 266.667M204 266L205 267L204 266M251 266L252 267L251 266M359 266L360 267L359 266M32 267L33 268L32 267M52 267L52 268L55 268L52 267M146 267L147 268L146 267M253 267L254 268L253 267M301 267L302 268L301 267M34 268L35 269L34 268M81 268L82 269L81 268M154 268L155 269L154 268M256 268L257 269L256 268M372 268L373 269L372 268M432.333 268.667L432.667 269.333L432.333 268.667M70 269L71 270L70 269M141 269L142 270L141 269M175.333 269.667L175.667 270.333L175.333 269.667M259 269L259 270L262 270L259 269M292 269L293 270L292 269M35.3333 270.667L35.6667 271.333L35.3333 270.667M82 270L83 271L82 270M137.667 270.333L138.333 270.667L137.667 270.333M155 270L156 271L155 270M205 270L206 271L205 270M264 270L264 271L268 271L264 270M284 270L284 271L287 271L284 270M358 270L359 271L358 270M133.667 271.333L134.333 271.667L133.667 271.333M371.333 271.667L371.667 272.333L371.333 271.667M387.333 271.667L387.667 272.333L387.333 271.667M73 272L74 273L73 272M129 272L130 273L129 272M156 272L157 273L156 272M176 272L177 273L176 272M75 273L76 274L75 273M82 273L83 274L82 273M124.667 273.333L125.333 273.667L124.667 273.333M206 273L207 274L206 273M238 273L239 274L238 273M433 273L433 281L434 281L433 273M78 274L78 275L81 275L78 274M119 274L120 275L119 274M157 274L158 275L157 274M239 274L240 275L239 274M309 274L310 275L309 274M386.333 274.667L386.667 275.333L386.333 274.667M113.667 275.333L114.333 275.667L113.667 275.333M177 275L178 276L177 275M307 275L308 276L307 275M370.333 275.667L370.667 276.333L370.333 275.667z"/>
<path style="fill:#feffff; stroke:none;" d="M32 340C37.6934 337.042 38.9245 330.796 40.5787 325C44.8122 310.168 53.8646 291.145 54 276C48.7795 276.812 44.1913 281.167 42.1474 286.09C40.3635 290.386 40.8351 295.497 39.5718 300C36.1584 312.167 28.979 327.276 32 340z"/>
<path style="fill:#f7ffd7; stroke:none;" d="M107.667 276.333L108.333 276.667L107.667 276.333M158 276L159 277L158 276M207 276L208 277L207 276M218 276L219 277L218 276M305 276L306 277L305 276M48 277L49 278L48 277M100 277L100 278L103 278L100 277M178.333 277.667L178.667 278.333L178.333 277.667M241 277L242 278L241 277M303 277L304 278L303 277M356 277L357 278L356 277M385.333 277.667L385.667 278.333L385.333 277.667M91 278L91 279L95 279L91 278M159 278L160 279L159 278M219 279L220 280L219 279M242 279L243 280L242 279M300 279L301 280L300 279M369 279L370 280L369 279M46 280L47 281L46 280M64 280L64 281L70 281L64 280M160 280L161 281L160 280M179 280L180 281L179 280M208 280L209 281L208 280M249 280L250 281L249 280z"/>
<path style="fill:#feffff; stroke:none;" d="M250 280C240.698 302.044 273.751 305.926 287.697 297.566C296.782 292.12 288.435 282.38 281 282.039C277.345 281.872 273.659 282 270 282C263.211 282 256.674 281.243 250 280z"/>
<path style="fill:#f7ffd7; stroke:none;" d="M252.667 280.333L253.333 280.667L252.667 280.333M299 280L300 281L299 280M220 281L221 282L220 281M259 281L259 282L262 282L259 281M298 281L299 282L298 281M384 281L385 282L384 281M134 282L134 283L145 283L134 282M180.333 282.667L180.667 283.333L180.333 282.667M221.333 282.667L221.667 283.333L221.333 282.667M285.667 282.333L286.333 282.667L285.667 282.333M432 282L432 285L433 285L432 282M120.667 283.333L121.333 283.667L120.667 283.333z"/>
<path style="fill:#23b14d; stroke:none;" d="M293 461L289 445C278.902 446.935 270.387 432.83 266 425C241.481 429.549 214.098 400.894 211 378C204.894 378.774 199.181 374.027 198 368C171.434 367.378 145.111 348.997 128.791 330C124.968 325.55 103.263 305.294 117.019 300.643C122.592 298.759 128.841 303.741 133 306.729C144.355 314.887 154.964 321.599 168 327C166.905 314.54 158.713 290.187 146.815 283.988C142.987 281.994 137.186 283 133 283C120.579 283 96.4042 283.557 91.5849 298.001C83.832 321.237 104.86 334.702 116.049 350.09C119.557 354.914 124.258 361.117 125.607 367C128.734 380.63 125.741 393.05 137.09 403.816C151.85 417.816 178.935 417.118 198 417.961C204.975 418.269 214.663 417.41 221 420.558C243.376 431.672 267.025 460.983 293 461z"/>
<path style="fill:#f7ffd7; stroke:none;" d="M147 283L148 284L147 283M209 283L210 284L209 283M242.333 283.667L242.667 284.333L242.333 283.667M248 283L249 284L248 283M289 283L290 284L289 283M297 283L298 284L297 283M111 284L111 285L117 285L111 284M148 284L149 285L148 284M222 284L223 285L222 284M290 284L291 285L290 284M354 284L355 285L354 284M383 284L384 285L383 284M107 285L107 286L110 286L107 285M149.333 285.667L149.667 286.333L149.333 285.667M181 285L182 286L181 285M210 285L211 286L210 285M104.667 286.333L105.333 286.667L104.667 286.333M223 286L224 287L223 286M431 286L432 287L431 286M102 287L103 288L102 287M164 287L165 288L164 287M182.333 287.667L182.667 288.333L182.333 287.667M224 287L225 288L224 287M241.333 287.667L241.667 288.333L241.333 287.667M291 287L291 290L292 290L291 287M353 287L354 288L353 287M382 287L383 288L382 287M100 288L101 289L100 288M211 288L212 289L211 288M225 288L226 289L225 288M430.333 288.667L430.667 289.333L430.333 288.667M50 289L51 290L50 289M165 289L166 290L165 289M226 289L227 290L226 289M183 290L184 291L183 290M227 290L228 291L227 290M240 290L241 291L240 290M166 291L167 292L166 291M212 291L213 292L212 291M228 291L229 292L228 291M248 291L248 294L249 294L248 291M297.333 291.667L297.667 292.333L297.333 291.667M429 291L430 292L429 291M49 292L50 293L49 292M184.333 292.667L184.667 293.333L184.333 292.667M230 292L231 293L230 292z"/>
<path style="fill:#ed1d25; stroke:none;" d="M364 292C358.407 300.48 355.948 305.992 345 306C344.076 322.881 317.215 331.33 304 336.373C278.812 345.986 246.714 349.039 220 343.331C214.477 342.151 210.197 338.735 205 337.239C192.169 333.547 177.596 331.272 165 325.005C151.886 318.481 141.477 310.685 129 303.279C125.176 301.01 118.318 298.221 114.319 301.603C110.232 305.061 113.322 311.358 115.475 315C120.996 324.336 130.715 336.552 139.039 343.485C153.367 355.418 171.645 361.171 189 366.771C194.801 368.642 201.727 367.058 206.941 370.728C212.653 374.747 212.436 386.701 215.475 393C223.436 409.504 246.368 429.674 266 425C268.029 430.508 277.049 443.947 283.039 445.412C293.049 447.859 298.793 437.221 293 430C309.413 425.955 327.742 419.903 339.561 406.91C344.897 401.043 350.185 392.022 345.566 384.055C338.078 371.138 323.894 383.095 324 394C314.264 397.543 285.35 405.736 290 384L296 385C298.408 369.314 312.318 371.868 323 366.586C342.727 356.83 378.979 343.454 374.856 316.039C374.186 311.586 370.025 308.978 368.269 304.961C366.414 300.719 366.617 295.809 364 292z"/>
<path style="fill:#f7ffd7; stroke:none;" d="M428.333 292.667L428.667 293.333L428.333 292.667M167 293L168 294L167 293M213 293L214 294L213 293M232.667 293.333L233.333 293.667L232.667 293.333M237 293L238 294L237 293M290 293L291 294L290 293M366 293L367 294L366 293M298.333 294.667L298.667 295.333L298.333 294.667M427 294L428 295L427 294M168 295L169 296L168 295M185 295L186 296L185 295M40 296L41 297L40 296M48 296L49 297L48 296M249 296L250 297L249 296M379 296L380 297L379 296M426 296L427 297L426 296M169 297L170 298L169 297M299.333 297.667L299.667 298.333L299.333 297.667M186 298L187 299L186 298M215 298L216 299L215 298M251.667 298.333L252.333 298.667L251.667 298.333M285 298L286 299L285 298M425 298L426 299L425 298M39.3333 299.667L39.6667 300.333L39.3333 299.667M47 299L48 300L47 299M170 299L171 300L170 299M256 299L256 300L260 300L256 299M276 299L276 300L279 300L276 299M378 299L379 300L378 299M424 299L425 300L424 299M187 300L188 301L187 300M216 300L217 301L216 300M300.333 300.667L300.667 301.333L300.333 300.667M171 301L172 302L171 301M423 301L424 302L423 301M46.3333 302.667L46.6667 303.333L46.3333 302.667M188 302L189 303L188 302M217 302L218 303L217 302M232.667 302.333L233.333 302.667L232.667 302.333M377 302L378 303L377 302M422 302L423 303L422 302M38 303L39 304L38 303M172 303L173 304L172 303M235 303L236 304L235 303M189.333 304.667L189.667 305.333L189.333 304.667M218 304L219 305L218 304M232.333 304.667L232.667 305.333L232.333 304.667M238.667 304.333L239.333 304.667L238.667 304.333M421 304L422 305L421 304M244 305L244 306L247 306L244 305M347 305L348 306L347 305M420.333 305.667L420.667 306.333L420.333 305.667M45 306L46 307L45 306M219 306L220 307L219 306M233 306L234 307L233 306M253 306L253 307L257 307L253 306M295 306L296 307L295 306M174 307L175 308L174 307M190 307L191 308L190 307M271 307L271 308L290 308L271 307M419 307L420 308L419 307M369 308L370 309L369 308M191 309L192 310L191 309M418 309L419 310L418 309M27 310L28 311L27 310M44 310L45 311L44 310M372.667 310.333L373.333 310.667L372.667 310.333M417 310L418 311L417 310M192 311L193 312L192 311M222 311L223 312L222 311M416 312L417 313L416 312M26 313L27 314L26 313M193 313L194 314L193 313M415.333 313.667L415.667 314.333L415.333 313.667M43 314L44 315L43 314M224 314L225 315L224 314M194 315L195 316L194 315M414 315L415 316L414 315M25 317L26 318L25 317M165 317L166 318L165 317M195.333 317.667L195.667 318.333L195.333 317.667M226 317L227 318L226 317M243 317L244 318L243 317M413 317L414 318L413 317M244 318L245 319L244 318M92 319L93 320L92 319M166 319L167 320L166 319M196.333 319.667L196.667 320.333L196.333 319.667M412 319L413 320L412 319M247 320L248 321L247 320M410 320L408 328L409 328L412 320L410 320M24 321L25 322L24 321M41 321L42 322L41 321M50.3333 321.667L50.6667 322.333L50.3333 321.667M197.333 321.667L197.667 322.333L197.333 321.667M248 321L249 322L248 321z"/>
<path style="fill:#feffff; stroke:none;" d="M49 322L50 323L49 322z"/>
<path style="fill:#f7ffd7; stroke:none;" d="M93 322L94 323L93 322M167 322L168 323L167 322M230 322L231 323L230 322M250 322L251 323L250 322M198.333 323.667L198.667 324.333L198.333 323.667M231 323L232 324L231 323M251 323L252 324L251 323M94.3333 324.667L94.6667 325.333L94.3333 324.667M253 324L254 325L253 324M40 325L41 326L40 325M49 325L50 326L49 325M199.333 325.667L199.667 326.333L199.333 325.667M233 325L234 326L233 325M255 325L256 326L255 325M32 326L33 327L32 326M95.3333 326.667L95.6667 327.333L95.3333 326.667M234 326L235 327L234 326M257 326L258 327L257 326M200 327L201 328L200 327M235 327L236 328L235 327M260 327L260 328L263 328L260 327M283 327L284 328L283 327M23 328L23 331L24 331L23 328M39 328L40 329L39 328M96.3333 328.667L96.6667 329.333L96.3333 328.667M236 328L237 329L236 328M287.333 328.667L287.667 329.333L287.333 328.667M407 328L408 329L407 328M201 329L202 330L201 329M406 330L407 331L406 330M202 331L203 332L202 331M240 331L241 332L240 331M284 331L285 332L284 331M402 332L403 336L404 336L405 332L402 332M46 333L47 334L46 333M37 334L38 335L37 334M204.333 334.667L204.667 335.333L204.333 334.667M245 334L246 335L245 334M278 334L279 335L278 334M101 335L102 336L101 335M247 335L248 336L247 335M275 335L276 336L275 335M36 336L37 337L36 336M102 336L103 337L102 336M250 336L251 337L250 336M271.667 336.333L272.333 336.667L271.667 336.333M402.333 336.667L402.667 337.333L402.333 336.667M255 337L255 338L259 338L255 337M263 337L263 338L267 338L263 337M31 338L32 339L31 338M103 338L104 339L103 338M401.333 338.667L401.667 339.333L401.333 338.667M104 339L105 340L104 339M23 340L23 344L24 344L23 340M105 340L106 341L105 340M400.333 340.667L400.667 341.333L400.333 340.667M106 341L107 342L106 341M108 342L108 344L110 344L108 342M399.333 342.667L399.667 343.333L399.333 342.667M42 343L43 344L42 343M110 344L111 345L110 344M41 345L42 346L41 345M111 345L112 346L111 345M398.333 345.667L398.667 346.333L398.333 345.667M112 346L113 347L112 346M357 346L358 347L357 346M40 347L41 348L40 347M113 347L116 349L113 347M356 347L357 348L356 347M24 348L25 349L24 348M39 348L40 349L39 348M349 351L349 352L356 348L349 351M397 349L397 352L398 352L397 349M25 350L26 351L25 350M26 351L27 352L26 351M36 351L37 352L36 351z"/>
<path style="fill:#feffff; stroke:none;" d="M334 361C331.99 372.007 307.289 394.419 297 383L290 384C283.997 404.95 314.419 399.04 324 394C324.721 381.722 333.249 381.586 341 375.517C348.995 369.258 353.993 361.117 355 351L334 361z"/>
<path style="fill:#f7ffd7; stroke:none;" d="M355 351L355 354L356 354L355 351M29 352L30 353L29 352M34 352L35 353L34 352M396 354L396 357L397 357L396 354M354 355L355 356L354 355M353 357L354 358L353 357M395 360L395 365L396 365L395 360M335 361L336 362L335 361z"/>
<path style="fill:#01a3e9; stroke:none;" d="M335 362C323.802 364.117 317.016 371.306 307 375.633C303.778 377.025 296.465 376.873 296.882 382C297.406 388.454 306.034 387.119 310 385.518C319.912 381.514 329.243 370.703 335 362z"/>
<path style="fill:#f7ffd7; stroke:none;" d="M125 365L125 372L126 372L125 365M332 365L333 366L332 365M350 365L351 366L350 365M331 366L332 367L331 366M349 366L350 367L349 366z"/>
<path style="fill:#feffff; stroke:none;" d="M198 368C198.906 371.049 205.892 383.105 209.914 376.593C213.691 370.476 201.432 368.281 198 368M301 377C307.437 376.341 313.059 373.103 317 368C310.937 368.817 302.156 370.003 301 377z"/>
<path style="fill:#f7ffd7; stroke:none;" d="M197 369L198 370L197 369M316 369L317 370L316 369M394 369L394 373L395 373L394 369M198 370L199 371L198 370z"/>
<path style="fill:#01a3e9; stroke:none;" d="M223 375L251 374L251 372C242.71 369.958 229.472 368.201 223 375z"/>
<path style="fill:#f7ffd7; stroke:none;" d="M328 370L329 371L328 370M327 371L328 372L327 371M199 372L200 373L199 372M312 372L313 373L312 372M326 372L327 373L326 372M311 373L312 374L311 373M126 374L126 380L127 380L126 374M309 374L310 375L309 374z"/>
<path style="fill:#feffff; stroke:none;" d="M223 375L223 376L250 378L250 375L223 375z"/>
<path style="fill:#f7ffd7; stroke:none;" d="M307 375L308 376L307 375M300 376L301 377L300 376M305 376L306 377L305 376M339 376L340 377L339 376M210 377L211 378L210 377z"/>
<path style="fill:#23b14d; stroke:none;" d="M229 377C229.15 389.691 247.605 395.576 257.682 388.697C266.199 382.883 254.216 378.98 250 378.424C247.323 378.072 244.689 378.083 242 377.961C237.633 377.762 233.394 377.012 229 377z"/>
<path style="fill:#f7ffd7; stroke:none;" d="M338 377L339 378L338 377M206.667 378.333L207.333 378.667L206.667 378.333M209 378L210 379L209 378M337 378L338 379L337 378M319 379L320 380L319 379M126.333 381.667L126.667 382.333L126.333 381.667M316 381L317 382L316 381M393 381L393 386L394 386L393 381M315 382L316 383L315 382M127.333 385.667L127.667 386.333L127.333 385.667M298 385L299 386L298 385M128.333 390.667L128.667 391.333L128.333 390.667M129 393L130 394L129 393M392 393L392 397L393 397L392 393M130 395L131 396L130 395M132 398L133 399L132 398M133 399L134 400L133 399M391 403L391 406L392 406L391 403M140 406L141 407L140 406M143 408L144 409L143 408M149 411L150 412L149 411M152 412L153 413L152 412M156 413L157 414L156 413M161 414L162 415L161 414M168 415L169 416L168 415M177 416L177 417L180 417L177 416M188 417L188 418L194 418L188 417M202 418L202 419L208 419L202 418M216 419L216 420L220 420L216 419M221 420L222 421L221 420M246 421L247 422L246 421M224 422L225 423L224 422M227 424L228 425L227 424M230 426L231 427L230 426M233 428L234 429L233 428M236 430L237 431L236 430M338.667 431.333L339.333 431.667L338.667 431.333M239 432L240 433L239 432M335 432L336 433L335 432M333 433L334 434L333 433M242 434L243 435L242 434M330 435L331 436L330 435M245 436L246 437L245 436M329 436L330 437L329 436M328 437L329 438L328 437M248 438L249 439L248 438M249 439L250 440L249 439M299 439L300 440L299 439M251 440L252 441L251 440M314 440L315 441L314 440M325 441L326 442L325 441M254 442L255 443L254 442M256 443L257 444L256 443M257 444L258 445L257 444M289.333 444.667L289.667 445.333L289.333 444.667M318 444L319 445L318 444M259 445L260 446L259 445M321 445L322 446L321 445M262 447L263 448L262 447M265 449L266 450L265 449M270 452L271 453L270 452M289 452L290 453L289 452M290 453L291 454L290 453M273 454L274 455L273 454M292 454L293 455L292 454M293 456L294 457L293 456M278 457L279 458L278 457M281 459L282 460L281 459M287 461L287 462L292 462L287 461z"/>
</svg>
