<?xml version="1.0" encoding="UTF-8" standalone="no" ?>
<!DOCTYPE svg PUBLIC "-//W3C//DTD SVG 1.1//EN" "http://www.w3.org/Graphics/SVG/1.1/DTD/svg11.dtd">
<svg xmlns="http://www.w3.org/2000/svg" xmlns:xlink="http://www.w3.org/1999/xlink" version="1.1" width="550" height="220" viewBox="122.19 182.29 550 220" xml:space="preserve">
<desc>Created with Fabric.js 5.2.4</desc>
<defs>
</defs>
<rect x="0" y="0" width="100%" height="100%" fill="transparent"></rect>
<g transform="matrix(1 0 0 1 275 110)" id="78fea064-f8a3-41bc-bd07-d73b69053e86"  >
<rect style="stroke: none; stroke-width: 1; stroke-dasharray: none; stroke-linecap: butt; stroke-dashoffset: 0; stroke-linejoin: miter; stroke-miterlimit: 4; fill: rgb(255,255,255); fill-rule: nonzero; opacity: 1; visibility: hidden;" vector-effect="non-scaling-stroke"  x="-275" y="-110" rx="0" ry="0" width="550" height="220" />
</g>
<g transform="matrix(Infinity NaN NaN Infinity 0 0)" id="0a0aecc5-bbd4-4eff-8a83-16cdbc724cec"  >
</g>
<g transform="matrix(0.13 0 0 -0.12 318.52 238.69)"  >
<path style="stroke: none; stroke-width: 1; stroke-dasharray: none; stroke-linecap: butt; stroke-dashoffset: 0; stroke-linejoin: miter; stroke-miterlimit: 4; fill: rgb(67,132,212); fill-rule: nonzero; opacity: 1;" vector-effect="non-scaling-stroke"  transform=" translate(-1419.32, -1315.38)" d="M 1366 1424 C 1354 1412 1350 1387 1350 1316 C 1350 1198 1357 1188 1430 1192 L 1485 1195 L 1488 1305 C 1490 1400 1488 1416 1473 1427 C 1449 1445 1385 1443 1366 1424 z" stroke-linecap="round" />
</g>
<g transform="matrix(0.13 0 0 -0.12 397.83 268.88)"  >
<path style="stroke: none; stroke-width: 1; stroke-dasharray: none; stroke-linecap: butt; stroke-dashoffset: 0; stroke-linejoin: miter; stroke-miterlimit: 4; fill: rgb(67,132,212); fill-rule: nonzero; opacity: 1;" vector-effect="non-scaling-stroke"  transform=" translate(-2019.58, -1069.98)" d="M 1676 1424 C 1667 1416 1660 1406 1660 1403 C 1660 1387 2005 945 2019 942 C 2031 940 2067 978 2136 1067 L 2235 1195 L 2238 961 C 2239 808 2244 722 2251 713 C 2257 706 2282 700 2306 700 C 2384 700 2381 687 2378 1075 C 2376 1264 2372 1422 2368 1426 C 2356 1437 2264 1443 2247 1434 C 2239 1429 2185 1361 2126 1282 L 2019 1139 L 1919 1272 C 1863 1345 1809 1413 1798 1423 C 1772 1445 1697 1446 1676 1424 z" stroke-linecap="round" />
</g>
<g transform="matrix(0.13 0 0 -0.12 588.06 238.77)"  >
<path style="stroke: none; stroke-width: 1; stroke-dasharray: none; stroke-linecap: butt; stroke-dashoffset: 0; stroke-linejoin: miter; stroke-miterlimit: 4; fill: rgb(67,132,212); fill-rule: nonzero; opacity: 1;" vector-effect="non-scaling-stroke"  transform=" translate(-3459.39, -1314.7)" d="M 3325 1426 C 3301 1408 3306 1397 3392 1285 L 3465 1190 L 3533 1190 C 3584 1190 3602 1194 3606 1205 C 3612 1220 3487 1399 3452 1428 C 3431 1444 3349 1443 3325 1426 z" stroke-linecap="round" />
</g>
<g transform="matrix(0.13 0 0 -0.12 611.86 268.94)"  >
<path style="stroke: none; stroke-width: 1; stroke-dasharray: none; stroke-linecap: butt; stroke-dashoffset: 0; stroke-linejoin: miter; stroke-miterlimit: 4; fill: rgb(67,132,212); fill-rule: nonzero; opacity: 1;" vector-effect="non-scaling-stroke"  transform=" translate(-3639.58, -1069.5)" d="M 3808 1413 C 3741 1340 3296 744 3296 726 C 3295 707 3302 705 3366 702 L 3437 699 L 3535 830 C 3588 901 3635 960 3639 959 C 3642 959 3688 902 3740 832 L 3835 705 L 3906 702 C 3962 700 3979 702 3983 714 C 3987 724 3942 790 3863 892 C 3794 982 3735 1061 3733 1068 C 3730 1075 3783 1153 3850 1242 L 3973 1403 L 3951 1422 C 3936 1434 3912 1440 3881 1440 C 3842 1440 3829 1435 3808 1413 z" stroke-linecap="round" />
</g>
<g transform="matrix(0.13 0 0 -0.12 484.31 269.34)"  >
<path style="stroke: none; stroke-width: 1; stroke-dasharray: none; stroke-linecap: butt; stroke-dashoffset: 0; stroke-linejoin: miter; stroke-miterlimit: 4; fill: rgb(67,132,212); fill-rule: nonzero; opacity: 1;" vector-effect="non-scaling-stroke"  transform=" translate(-2674.17, -1066.19)" d="M 2737 1416 C 2535 1342 2446 1081 2553 874 C 2594 795 2716 710 2794 707 L 2835 705 L 2838 755 C 2839 783 2837 810 2833 815 C 2828 821 2800 838 2769 853 C 2703 885 2666 932 2650 1005 C 2622 1130 2682 1251 2794 1294 L 2841 1312 L 2838 1369 C 2835 1423 2834 1425 2805 1427 C 2789 1429 2758 1423 2737 1416 z" stroke-linecap="round" />
</g>
<g transform="matrix(0.13 0 0 -0.12 537.43 269.18)"  >
<path style="stroke: none; stroke-width: 1; stroke-dasharray: none; stroke-linecap: butt; stroke-dashoffset: 0; stroke-linejoin: miter; stroke-miterlimit: 4; fill: rgb(67,132,212); fill-rule: nonzero; opacity: 1;" vector-effect="non-scaling-stroke"  transform=" translate(-3076.25, -1067.51)" d="M 2917 1423 C 2913 1420 2910 1394 2910 1365 L 2910 1314 L 2969 1287 C 3068 1242 3120 1142 3104 1031 C 3091 943 3027 860 2961 845 C 2918 836 2908 819 2912 758 L 2915 705 L 2956 707 C 3010 709 3084 747 3139 802 C 3277 938 3277 1191 3139 1329 C 3073 1395 2943 1450 2917 1423 z" stroke-linecap="round" />
</g>
<g transform="matrix(0.13 0 0 -0.12 204.57 297.11)"  >
<path style="stroke: none; stroke-width: 1; stroke-dasharray: none; stroke-linecap: butt; stroke-dashoffset: 0; stroke-linejoin: miter; stroke-miterlimit: 4; fill: rgb(67,132,212); fill-rule: nonzero; opacity: 1;" vector-effect="non-scaling-stroke"  transform=" translate(-556.85, -840.54)" d="M 415 1411 C 295 1378 210 1282 210 1179 C 210 1157 200 1144 168 1122 C 109 1081 85 1053 59 995 C 27 925 27 796 59 725 C 84 669 139 607 180 590 C 205 580 208 573 212 517 C 215 482 227 436 238 414 C 293 307 449 238 534 283 C 560 297 565 297 599 280 C 632 262 640 262 690 274 C 764 291 799 311 843 359 C 881 402 910 479 910 540 C 910 569 915 579 933 587 C 1018 626 1071 717 1078 836 C 1085 973 1039 1075 946 1125 C 922 1138 910 1152 910 1165 C 910 1211 877 1293 844 1329 C 825 1350 786 1378 757 1390 C 708 1412 690 1414 565 1410 C 549 1410 515 1412 490 1414 C 465 1417 432 1415 415 1411 z M 517 1398 L 550 1386 L 550 1255 L 550 1124 L 485 1060 C 449 1025 420 991 420 986 C 420 980 451 1006 488 1043 L 556 1110 L 612 1053 C 643 1020 670 984 672 970 C 674 951 681 945 699 945 C 731 945 748 973 730 995 C 723 1004 708 1009 698 1007 C 685 1003 664 1020 625 1065 L 570 1127 L 570 1257 L 570 1386 L 603 1398 C 622 1405 651 1407 668 1404 C 698 1398 700 1395 700 1355 C 700 1329 694 1307 685 1300 C 664 1283 666 1253 689 1240 C 704 1233 712 1234 724 1246 C 744 1265 744 1275 725 1294 C 706 1313 704 1390 723 1390 C 749 1390 830 1330 855 1292 C 879 1256 904 1157 892 1145 C 889 1142 854 1140 815 1140 C 763 1140 739 1144 730 1155 C 712 1176 682 1174 675 1150 C 663 1111 705 1085 730 1115 C 739 1126 764 1130 825 1130 C 902 1130 911 1128 955 1098 C 981 1080 1014 1046 1027 1023 L 1052 980 L 972 980 C 927 980 888 985 885 990 C 876 1004 833 1002 827 988 C 816 955 867 922 885 950 C 888 956 929 960 975 960 L 1059 960 L 1065 917 C 1069 894 1070 859 1068 840 C 1065 805 1065 805 1011 802 C 972 800 953 803 939 816 C 907 845 863 808 890 775 C 906 756 936 756 944 775 C 948 786 965 790 1006 790 L 1062 790 L 1055 763 C 1042 707 1004 655 955 622 L 905 588 L 844 657 C 810 694 784 730 787 736 C 789 742 784 755 775 764 C 762 776 754 778 739 769 C 712 755 718 716 747 712 C 759 710 799 679 835 642 C 899 576 900 575 894 530 C 884 450 861 395 822 357 C 788 324 726 290 700 290 C 687 290 687 377 700 385 C 715 395 712 437 695 444 C 659 457 632 424 655 393 C 663 383 670 354 670 328 C 670 286 667 280 650 280 C 638 280 616 287 600 295 L 570 311 L 570 445 L 570 580 L 644 580 C 700 580 719 576 724 565 C 731 546 764 546 779 564 C 788 575 789 584 780 599 C 767 624 747 626 730 605 C 721 594 697 590 644 590 L 570 590 L 570 725 C 570 850 571 860 589 860 C 599 860 613 853 620 845 C 627 836 643 830 654 832 C 670 834 675 842 675 865 C 675 899 651 910 627 885 C 602 860 568 867 528 907 C 507 927 490 939 490 934 C 490 928 504 911 520 895 L 550 866 L 498 813 C 469 784 450 760 455 760 C 460 760 484 779 507 802 L 550 844 L 550 754 L 550 665 L 450 565 C 396 511 353 464 355 461 C 358 459 375 471 393 488 L 426 520 L 455 490 C 471 474 488 460 494 460 C 499 460 489 476 470 495 L 436 530 L 493 588 L 550 645 L 550 477 L 550 310 L 515 293 C 484 278 473 278 432 289 C 407 295 383 303 381 306 C 378 308 392 326 410 345 C 454 391 437 390 390 345 L 354 310 L 312 346 C 259 391 232 442 224 515 L 217 572 L 306 661 C 355 710 390 750 384 750 C 379 750 359 734 340 715 C 321 696 301 680 295 680 C 289 680 269 696 250 715 C 231 734 212 750 206 750 C 200 750 216 730 240 705 L 284 660 L 253 629 C 227 603 217 599 194 604 C 158 613 83 688 74 724 C 68 749 75 759 141 826 L 214 900 L 257 858 C 280 835 303 820 307 824 C 312 828 295 849 270 870 L 225 909 L 280 964 C 310 995 330 1020 325 1020 C 319 1020 259 964 191 896 C 122 827 63 773 58 776 C 54 779 50 814 50 855 C 50 951 77 1026 129 1073 C 187 1126 206 1128 246 1089 C 264 1071 283 1060 287 1064 C 292 1068 278 1085 257 1102 C 215 1136 211 1161 236 1237 C 259 1308 312 1359 395 1390 L 420 1400 L 420 1316 C 420 1238 418 1230 390 1195 C 352 1147 358 1137 398 1181 L 428 1214 L 455 1182 C 494 1136 499 1151 461 1198 C 432 1235 430 1243 430 1318 C 430 1386 433 1399 448 1403 C 477 1411 482 1410 517 1398 z M 718 1267 C 720 1257 715 1250 706 1250 C 688 1250 677 1266 685 1281 C 694 1295 714 1287 718 1267 z M 720 1134 C 720 1120 699 1115 687 1127 C 678 1136 700 1161 711 1154 C 716 1151 720 1142 720 1134 z M 720 977 C 720 969 717 960 713 957 C 704 948 679 970 686 981 C 694 995 720 992 720 977 z M 876 979 C 886 962 863 943 849 957 C 837 969 845 990 860 990 C 865 990 872 985 876 979 z M 670 865 C 670 857 661 850 650 850 C 639 850 630 857 630 865 C 630 873 639 880 650 880 C 661 880 670 873 670 865 z M 933 803 C 942 794 920 769 909 776 C 895 784 898 810 913 810 C 921 810 930 807 933 803 z M 770 746 C 770 725 749 715 740 731 C 735 738 734 748 736 752 C 745 766 770 761 770 746 z M 770 587 C 770 579 767 570 763 567 C 754 558 729 580 736 591 C 744 605 770 602 770 587 z M 698 413 C 700 405 693 400 681 400 C 669 400 660 406 660 416 C 660 434 691 431 698 413 z" stroke-linecap="round" />
</g>
<g transform="matrix(0.13 0 0 -0.12 318.63 287.34)"  >
<path style="stroke: none; stroke-width: 1; stroke-dasharray: none; stroke-linecap: butt; stroke-dashoffset: 0; stroke-linejoin: miter; stroke-miterlimit: 4; fill: rgb(67,132,212); fill-rule: nonzero; opacity: 1;" vector-effect="non-scaling-stroke"  transform=" translate(-1420.14, -919.94)" d="M 1360 1121 C 1347 1095 1347 745 1360 719 C 1368 705 1381 700 1415 700 C 1494 700 1490 688 1490 914 C 1490 1058 1487 1119 1478 1128 C 1471 1135 1445 1140 1418 1140 C 1381 1140 1368 1136 1360 1121 z" stroke-linecap="round" />
</g>
<g transform="matrix(0.13 0 0 -0.12 359.57 299.02)"  >
<path style="stroke: none; stroke-width: 1; stroke-dasharray: none; stroke-linecap: butt; stroke-dashoffset: 0; stroke-linejoin: miter; stroke-miterlimit: 4; fill: rgb(67,132,212); fill-rule: nonzero; opacity: 1;" vector-effect="non-scaling-stroke"  transform=" translate(-1730, -825)" d="M 1672 938 C 1664 930 1660 890 1660 825 C 1660 760 1664 720 1672 712 C 1688 696 1772 696 1788 712 C 1804 728 1804 922 1788 938 C 1781 945 1755 950 1730 950 C 1705 950 1679 945 1672 938 z" stroke-linecap="round" />
</g>
<g transform="matrix(0.13 0 0 -0.12 351.06 350.59)"  >
<path style="stroke: none; stroke-width: 1; stroke-dasharray: none; stroke-linecap: butt; stroke-dashoffset: 0; stroke-linejoin: miter; stroke-miterlimit: 4; fill: rgb(15,77,152); fill-rule: nonzero; opacity: 1;" vector-effect="non-scaling-stroke"  transform=" translate(-1665.59, -405.85)" d="M 1626 528 C 1601 493 1607 457 1645 407 C 1668 377 1680 350 1680 330 C 1680 291 1656 294 1652 333 C 1648 366 1610 372 1610 341 C 1610 278 1662 240 1700 275 C 1733 305 1727 363 1685 420 C 1648 470 1639 510 1665 510 C 1674 510 1680 501 1680 485 C 1680 467 1685 460 1700 460 C 1716 460 1720 467 1720 493 C 1720 511 1715 531 1708 538 C 1688 558 1643 552 1626 528 z" stroke-linecap="round" />
</g>
<g transform="matrix(0.14 0 0 -0.12 372.64 350.49)"  >
<path style="stroke: none; stroke-width: 1; stroke-dasharray: none; stroke-linecap: butt; stroke-dashoffset: 0; stroke-linejoin: miter; stroke-miterlimit: 4; fill: rgb(15,77,152); fill-rule: nonzero; opacity: 1;" vector-effect="non-scaling-stroke"  transform=" translate(-1824.71, -406.72)" d="M 1786 528 C 1766 499 1763 312 1783 288 C 1804 260 1837 257 1859 279 C 1878 298 1880 312 1880 408 C 1880 501 1877 519 1862 533 C 1836 556 1804 554 1786 528 z M 1838 408 C 1834 282 1816 274 1812 397 C 1809 488 1813 510 1830 510 C 1837 510 1840 475 1838 408 z" stroke-linecap="round" />
</g>
<g transform="matrix(0.13 0 0 -0.12 391.94 350.7)"  >
<path style="stroke: none; stroke-width: 1; stroke-dasharray: none; stroke-linecap: butt; stroke-dashoffset: 0; stroke-linejoin: miter; stroke-miterlimit: 4; fill: rgb(15,77,152); fill-rule: nonzero; opacity: 1;" vector-effect="non-scaling-stroke"  transform=" translate(-1975, -405)" d="M 1930 405 L 1930 260 L 1975 260 C 2013 260 2020 263 2020 280 C 2020 295 2013 300 1995 300 L 1970 300 L 1970 425 C 1970 543 1969 550 1950 550 C 1931 550 1930 543 1930 405 z" stroke-linecap="round" />
</g>
<g transform="matrix(0.13 0 0 -0.12 412.42 350.52)"  >
<path style="stroke: none; stroke-width: 1; stroke-dasharray: none; stroke-linecap: butt; stroke-dashoffset: 0; stroke-linejoin: miter; stroke-miterlimit: 4; fill: rgb(15,77,152); fill-rule: nonzero; opacity: 1;" vector-effect="non-scaling-stroke"  transform=" translate(-2130, -406.48)" d="M 2070 428 C 2071 295 2077 276 2122 265 C 2141 260 2154 264 2169 279 C 2188 298 2190 312 2190 425 C 2190 543 2189 550 2170 550 C 2152 550 2150 542 2148 428 C 2145 327 2142 305 2130 305 C 2118 305 2115 327 2112 428 C 2110 542 2108 550 2090 550 C 2071 550 2070 543 2070 428 z" stroke-linecap="round" />
</g>
<g transform="matrix(0.13 0 0 -0.12 434.22 350.36)"  >
<path style="stroke: none; stroke-width: 1; stroke-dasharray: none; stroke-linecap: butt; stroke-dashoffset: 0; stroke-linejoin: miter; stroke-miterlimit: 4; fill: rgb(15,77,152); fill-rule: nonzero; opacity: 1;" vector-effect="non-scaling-stroke"  transform=" translate(-2295, -407.71)" d="M 2257 532 C 2243 517 2240 492 2240 403 C 2240 291 2243 281 2282 267 C 2303 260 2336 286 2345 318 C 2350 336 2347 340 2331 340 C 2319 340 2310 333 2310 325 C 2310 317 2303 310 2295 310 C 2283 310 2280 328 2280 410 C 2280 472 2284 510 2290 510 C 2296 510 2303 503 2306 495 C 2312 481 2350 473 2350 486 C 2350 497 2327 535 2316 542 C 2297 555 2274 551 2257 532 z" stroke-linecap="round" />
</g>
<g transform="matrix(0.13 0 0 -0.12 449.52 350.6)"  >
<path style="stroke: none; stroke-width: 1; stroke-dasharray: none; stroke-linecap: butt; stroke-dashoffset: 0; stroke-linejoin: miter; stroke-miterlimit: 4; fill: rgb(15,77,152); fill-rule: nonzero; opacity: 1;" vector-effect="non-scaling-stroke"  transform=" translate(-2410.8, -405.81)" d="M 2394 537 C 2392 530 2391 466 2392 395 C 2395 281 2397 265 2413 262 C 2429 259 2430 271 2430 404 C 2430 528 2428 550 2415 550 C 2406 550 2397 544 2394 537 z" stroke-linecap="round" />
</g>
<g transform="matrix(0.13 0 0 -0.12 465.89 350.49)"  >
<path style="stroke: none; stroke-width: 1; stroke-dasharray: none; stroke-linecap: butt; stroke-dashoffset: 0; stroke-linejoin: miter; stroke-miterlimit: 4; fill: rgb(15,77,152); fill-rule: nonzero; opacity: 1;" vector-effect="non-scaling-stroke"  transform=" translate(-2534.71, -406.72)" d="M 2496 528 C 2476 499 2473 312 2493 288 C 2514 260 2547 257 2569 279 C 2588 298 2590 312 2590 408 C 2590 501 2587 519 2572 533 C 2546 556 2514 554 2496 528 z M 2548 408 C 2544 282 2526 274 2522 397 C 2519 488 2523 510 2540 510 C 2547 510 2550 475 2548 408 z" stroke-linecap="round" />
</g>
<g transform="matrix(0.13 0 0 -0.12 488.38 350.7)"  >
<path style="stroke: none; stroke-width: 1; stroke-dasharray: none; stroke-linecap: butt; stroke-dashoffset: 0; stroke-linejoin: miter; stroke-miterlimit: 4; fill: rgb(15,77,152); fill-rule: nonzero; opacity: 1;" vector-effect="non-scaling-stroke"  transform=" translate(-2705, -404.98)" d="M 2640 405 C 2640 267 2641 260 2660 260 C 2678 260 2680 267 2681 348 C 2682 434 2682 434 2691 380 C 2711 254 2708 260 2740 260 L 2770 260 L 2770 405 C 2770 543 2769 550 2750 550 C 2732 550 2730 543 2729 463 L 2727 375 L 2714 460 C 2707 507 2701 546 2701 548 C 2700 549 2687 550 2670 550 L 2640 550 L 2640 405 z" stroke-linecap="round" />
</g>
<g transform="matrix(0.13 0 0 -0.12 509.52 350.7)"  >
<path style="stroke: none; stroke-width: 1; stroke-dasharray: none; stroke-linecap: butt; stroke-dashoffset: 0; stroke-linejoin: miter; stroke-miterlimit: 4; fill: rgb(15,77,152); fill-rule: nonzero; opacity: 1;" vector-effect="non-scaling-stroke"  transform=" translate(-2865, -405)" d="M 2820 405 L 2820 260 L 2865 260 C 2903 260 2910 263 2910 280 C 2910 295 2903 300 2885 300 C 2861 300 2860 303 2860 355 C 2860 407 2861 410 2885 410 C 2903 410 2910 415 2910 430 C 2910 445 2903 450 2885 450 C 2864 450 2860 455 2860 480 C 2860 505 2864 510 2885 510 C 2903 510 2910 515 2910 530 C 2910 547 2903 550 2865 550 L 2820 550 L 2820 405 z" stroke-linecap="round" />
</g>
<g transform="matrix(0.13 0 0 -0.12 529.41 350.63)"  >
<path style="stroke: none; stroke-width: 1; stroke-dasharray: none; stroke-linecap: butt; stroke-dashoffset: 0; stroke-linejoin: miter; stroke-miterlimit: 4; fill: rgb(15,77,152); fill-rule: nonzero; opacity: 1;" vector-effect="non-scaling-stroke"  transform=" translate(-3015.55, -405.53)" d="M 2981 536 C 2974 528 2967 507 2964 488 C 2959 461 2965 447 2994 408 C 3018 377 3030 350 3030 330 C 3030 291 3006 294 3002 333 C 2998 366 2960 372 2960 341 C 2960 278 3012 240 3050 275 C 3083 305 3077 363 3034 421 C 2999 469 2993 499 3018 508 C 3025 510 3030 502 3030 486 C 3030 467 3035 460 3050 460 C 3066 460 3070 467 3070 493 C 3070 511 3065 531 3058 538 C 3042 554 2995 553 2981 536 z" stroke-linecap="round" />
</g>
<g transform="matrix(0.13 0 0 -0.12 570.59 350.7)"  >
<path style="stroke: none; stroke-width: 1; stroke-dasharray: none; stroke-linecap: butt; stroke-dashoffset: 0; stroke-linejoin: miter; stroke-miterlimit: 4; fill: rgb(15,77,152); fill-rule: nonzero; opacity: 1;" vector-effect="non-scaling-stroke"  transform=" translate(-3327.18, -405)" d="M 3235 518 C 3244 464 3270 281 3270 270 C 3270 265 3278 260 3289 260 C 3309 260 3320 285 3320 333 C 3320 348 3325 360 3330 360 C 3336 360 3340 348 3340 333 C 3340 285 3351 260 3371 260 C 3382 260 3390 266 3390 273 C 3391 279 3399 345 3409 418 C 3426 543 3426 550 3409 550 C 3389 550 3380 530 3380 485 C 3380 466 3376 448 3370 445 C 3364 442 3360 449 3360 463 C 3360 515 3348 550 3329 550 C 3315 550 3310 539 3305 503 C 3302 476 3297 448 3296 440 C 3293 424 3285 452 3275 513 C 3270 541 3264 550 3249 550 C 3232 550 3230 545 3235 518 z" stroke-linecap="round" />
</g>
<g transform="matrix(0.13 0 0 -0.12 596.72 350.7)"  >
<path style="stroke: none; stroke-width: 1; stroke-dasharray: none; stroke-linecap: butt; stroke-dashoffset: 0; stroke-linejoin: miter; stroke-miterlimit: 4; fill: rgb(15,77,152); fill-rule: nonzero; opacity: 1;" vector-effect="non-scaling-stroke"  transform=" translate(-3525, -405)" d="M 3480 405 L 3480 260 L 3525 260 C 3563 260 3570 263 3570 279 C 3570 293 3562 300 3543 302 C 3517 305 3515 309 3512 358 L 3509 410 L 3539 410 C 3563 410 3570 414 3570 429 C 3570 443 3562 450 3543 452 C 3521 454 3514 461 3512 483 C 3509 507 3512 510 3539 510 C 3563 510 3570 514 3570 530 C 3570 547 3563 550 3525 550 L 3480 550 L 3480 405 z" stroke-linecap="round" />
</g>
<g transform="matrix(0.13 0 0 -0.12 616.15 350.7)"  >
<path style="stroke: none; stroke-width: 1; stroke-dasharray: none; stroke-linecap: butt; stroke-dashoffset: 0; stroke-linejoin: miter; stroke-miterlimit: 4; fill: rgb(15,77,152); fill-rule: nonzero; opacity: 1;" vector-effect="non-scaling-stroke"  transform=" translate(-3672.02, -405)" d="M 3620 405 L 3620 260 L 3653 260 C 3711 260 3725 279 3724 357 C 3723 394 3722 444 3722 467 C 3721 518 3693 550 3650 550 L 3620 550 L 3620 405 z M 3680 474 C 3680 461 3676 450 3670 450 C 3665 450 3660 464 3660 481 C 3660 498 3664 509 3670 505 C 3676 502 3680 488 3680 474 z M 3685 355 C 3685 325 3680 305 3673 303 C 3663 299 3660 314 3660 355 C 3660 396 3663 411 3673 408 C 3680 405 3685 385 3685 355 z" stroke-linecap="round" />
</g>
</svg>