<?xml version="1.0" encoding="UTF-8" standalone="no" ?>
<!DOCTYPE svg PUBLIC "-//W3C//DTD SVG 1.1//EN" "http://www.w3.org/Graphics/SVG/1.1/DTD/svg11.dtd">
<svg xmlns="http://www.w3.org/2000/svg" xmlns:xlink="http://www.w3.org/1999/xlink" version="1.1" width="350" height="450" viewBox="0 0 350 450" xml:space="preserve">
<desc>Created with Fabric.js 5.2.4</desc>
<defs>
</defs>
<g transform="matrix(1 0 0 1 175 225)" id="4a51edad-30aa-422b-bd7f-e773555836a0"  >
<rect style="stroke: none; stroke-width: 1; stroke-dasharray: none; stroke-linecap: butt; stroke-dashoffset: 0; stroke-linejoin: miter; stroke-miterlimit: 4; fill: rgb(255,255,255); fill-rule: nonzero; opacity: 1; visibility: hidden;" vector-effect="non-scaling-stroke"  x="-175" y="-225" rx="0" ry="0" width="350" height="450" />
</g>
<g transform="matrix(Infinity NaN NaN Infinity 0 0)" id="45d6868a-6d74-405d-8c2d-f51f45cd55b0"  >
</g>
<g transform="matrix(0.97 0 0 0.97 210.47 306.9)" id="svg_3"  >
<path style="stroke: none; stroke-width: 1; stroke-dasharray: none; stroke-linecap: butt; stroke-dashoffset: 0; stroke-linejoin: miter; stroke-miterlimit: 4; fill: rgb(255,255,255); fill-rule: nonzero; opacity: 1;" vector-effect="non-scaling-stroke"  transform=" translate(-218.05, -307.3)" d="M 200 280.600006 L 200 319.5 C 200 327.5 206.399994 334 214.399994 334 C 222.399994 334 228.700012 327.5 228.700012 319.5 L 236.10000599999998 292.700012 L 236.10000599999998 287.600006 L 199.99999999999997 280.600006 z" stroke-linecap="round" />
</g>
<g transform="matrix(0.97 0 0 0.97 140.55 307.1)" id="svg_4"  >
<path style="stroke: none; stroke-width: 1; stroke-dasharray: none; stroke-linecap: butt; stroke-dashoffset: 0; stroke-linejoin: miter; stroke-miterlimit: 4; fill: rgb(255,255,255); fill-rule: nonzero; opacity: 1;" vector-effect="non-scaling-stroke"  transform=" translate(-146, -307.5)" d="M 149.200012 334 C 157.200012 334 164 327.5 164 319.5 L 164 281 L 128 287.600006 L 128 296.299988 L 134.600006 319.5 C 134.600006 327.5 141.20001200000002 334 149.20001200000002 334 z" stroke-linecap="round" />
</g>
<g transform="matrix(0.97 0 0 0.97 175.49 390.99)" id="svg_5"  >
<path style="stroke: none; stroke-width: 1; stroke-dasharray: none; stroke-linecap: butt; stroke-dashoffset: 0; stroke-linejoin: miter; stroke-miterlimit: 4; fill: rgb(255,255,255); fill-rule: nonzero; opacity: 1;" vector-effect="non-scaling-stroke"  transform=" translate(-182, -393.95)" d="M 148.200012 397 L 181.60000599999998 417.899994 L 215.40002399999997 397 C 225.40002399999997 390.799988 232.40002399999997 381 235.10000599999998 370 L 128.899994 370 C 131.5 381 138.200012 390.899994 148.200012 397 z" stroke-linecap="round" />
</g>
<g transform="matrix(0.97 0 0 0.97 175.49 252.7)" id="svg_6"  >
<path style="stroke: none; stroke-width: 1; stroke-dasharray: none; stroke-linecap: butt; stroke-dashoffset: 0; stroke-linejoin: miter; stroke-miterlimit: 4; fill: rgb(230,128,25); fill-rule: nonzero; opacity: 1;" vector-effect="non-scaling-stroke"  transform=" translate(-182, -251.45)" d="M 200 270.200012 L 200 250.5 C 200 240.5 192 232.300018 182 232.300018 C 172 232.300018 164 240.400024 164 250.5 L 164 270.600006 L 183.399994 267 L 200 270.200012 z" stroke-linecap="round" />
</g>
<g transform="matrix(0.97 0 0 0.97 175 117.92)" id="svg_7"  >
<path style="stroke: none; stroke-width: 1; stroke-dasharray: none; stroke-linecap: butt; stroke-dashoffset: 0; stroke-linejoin: miter; stroke-miterlimit: 4; fill: rgb(230,128,25); fill-rule: nonzero; opacity: 1;" vector-effect="non-scaling-stroke"  transform=" translate(-181.5, -112.55)" d="M 181.5 203.299988 C 230.399994 203.299988 257.700012 140.999985 257.700012 98.59999100000002 C 257.700012 56.19999700000002 223.600006 21.799988000000013 181.5 21.799988000000013 C 139.399994 21.799988000000013 105.299988 56.19999700000001 105.299988 98.59999100000002 C 105.299988 141 131.700012 203.299988 181.5 203.299988 z" stroke-linecap="round" />
</g>
<g transform="matrix(0.97 0 0 0.97 77.38 301.13)" id="svg_8"  >
<path style="stroke: none; stroke-width: 1; stroke-dasharray: none; stroke-linecap: butt; stroke-dashoffset: 0; stroke-linejoin: miter; stroke-miterlimit: 4; fill: rgb(230,128,25); fill-rule: nonzero; opacity: 1;" vector-effect="non-scaling-stroke"  transform=" translate(-80.9, -301.35)" d="M 118 279.100006 L 122.799988 278.200012 L 109.700012 232.799988 C 83.299988 240.20001200000002 64.799988 253 49.5 272.899994 C 43.5 280.700012 39.700012 296.5 39.5 304.899994 C 39.600006 307.100006 39 309.600006 39 312.200012 L 39 326.700012 L 39 341.200012 C 39 357.200012 53 369.899994 69 369.899994 L 118.5 369.899994 C 117.899994 366.899994 118 363.399994 118 359.899994 L 118 279.100006 L 118 279.100006 z" stroke-linecap="round" />
</g>
<g transform="matrix(0.97 0 0 0.97 272.96 301.23)" id="svg_9"  >
<path style="stroke: none; stroke-width: 1; stroke-dasharray: none; stroke-linecap: butt; stroke-dashoffset: 0; stroke-linejoin: miter; stroke-miterlimit: 4; fill: rgb(230,128,25); fill-rule: nonzero; opacity: 1;" vector-effect="non-scaling-stroke"  transform=" translate(-282.45, -301.45)" d="M 323.599976 305 C 323.399964 296.600006 319.899964 280.799988 313.899964 273 C 298.699952 253.100006 280.099976 240.20001200000002 253.699982 232.899994 L 240.899994 278 L 247 279.100006 L 247 360 C 247 363.5 246.199982 367 245.599976 370 L 294.09997599999997 370 C 310.09997599999997 370 323.99999999999994 357.299988 323.99999999999994 341.299988 L 323.99999999999994 326.799988 L 323.99999999999994 312.299988 C 323.99999999999994 309.70001199999996 323.49999999999994 307.100006 323.59997599999997 305 z" stroke-linecap="round" />
</g>
<g transform="matrix(0.97 0 0 0.97 175.1 346.49)" id="svg_11"  >
<path style="stroke: none; stroke-width: 1; stroke-dasharray: none; stroke-linecap: butt; stroke-dashoffset: 0; stroke-linejoin: miter; stroke-miterlimit: 4; fill: rgb(27,116,205); fill-rule: nonzero; opacity: 1;" vector-effect="non-scaling-stroke"  transform=" translate(-181.6, -348.1)" d="M 182.399994 287.200012 L 226.5 295.5 L 226.5 360 C 226.5 371.899994 220.399994 382.799988 210.29998799999998 389.100006 L 181.59997599999997 406.799988 L 152.89999399999996 389 C 142.69998199999998 382.700012 136.69998199999998 371.899994 136.69998199999998 359.899994 L 136.69998199999998 295.5 L 182.399994 287.200012 M 182.399994 272.200012 L 122 283.29998800000004 L 122 360.00000000000006 C 122 376.89999400000005 130.799988 392.7000120000001 145.20001200000002 401.60000600000006 L 181.600006 424.00000000000006 L 218 401.60000600000006 C 232.399994 392.7000120000001 241.20001200000002 377.00000000000006 241.20001200000002 360.00000000000006 L 241.20001200000002 283.39999400000005 L 182.39999400000002 272.2000120000001 L 182.39999400000002 272.2000120000001 z" stroke-linecap="round" />
</g>
<g transform="matrix(0.97 0 0 0.97 175 340.84)" id="svg_12"  >
<path style="stroke: none; stroke-width: 1; stroke-dasharray: none; stroke-linecap: butt; stroke-dashoffset: 0; stroke-linejoin: miter; stroke-miterlimit: 4; fill: rgb(230,128,25); fill-rule: nonzero; opacity: 1;" vector-effect="non-scaling-stroke"  transform=" translate(-181.5, -343.3)" d="M 181.5 310 C 163.100006 310 148.20001200000002 324.899994 148.20001200000002 343.299988 C 148.20001200000002 361.699982 163.100006 376.600006 181.5 376.600006 C 199.899994 376.600006 214.79998799999998 361.700012 214.79998799999998 343.299988 C 214.79998799999998 324.89996399999995 199.99999999999997 310 181.5 310 z M 181.5 318.899994 C 186.600006 318.899994 191.399994 320.5 195.399994 323.199982 L 161.399994 357.199982 C 158.700012 353.299988 157.10000599999998 348.5 157.10000599999998 343.299988 C 157.10000599999998 329.899994 167.99999999999997 318.899994 181.49999999999997 318.899994 z M 181.5 367.799988 C 176.399994 367.799988 171.600006 366.199982 167.600006 363.5 L 201.600006 329.5 C 204.299988 333.399994 205.89999400000002 338.199982 205.89999400000002 343.399994 C 206.00000000000003 356.899994 195.00000000000003 367.799988 181.50000000000003 367.799988 z" stroke-linecap="round" />
</g>
<g transform="matrix(NaN NaN NaN NaN 0 0)"  >
<g style=""   >
</g>
</g>
<g transform="matrix(NaN NaN NaN NaN 0 0)"  >
<g style=""   >
</g>
</g>
<g transform="matrix(NaN NaN NaN NaN 0 0)"  >
<g style=""   >
</g>
</g>
<g transform="matrix(NaN NaN NaN NaN 0 0)"  >
<g style=""   >
</g>
</g>
<g transform="matrix(NaN NaN NaN NaN 0 0)"  >
<g style=""   >
</g>
</g>
<g transform="matrix(NaN NaN NaN NaN 0 0)"  >
<g style=""   >
</g>
</g>
<g transform="matrix(NaN NaN NaN NaN 0 0)"  >
<g style=""   >
</g>
</g>
<g transform="matrix(NaN NaN NaN NaN 0 0)"  >
<g style=""   >
</g>
</g>
<g transform="matrix(NaN NaN NaN NaN 0 0)"  >
<g style=""   >
</g>
</g>
<g transform="matrix(NaN NaN NaN NaN 0 0)"  >
<g style=""   >
</g>
</g>
</svg>